<?xml version="1.0" standalone="no"?>
<!DOCTYPE svg PUBLIC "-//W3C//DTD SVG 1.1//EN" "http://www.w3.org/Graphics/SVG/1.1/DTD/svg11.dtd" >
<svg xmlns="http://www.w3.org/2000/svg">
<metadata>
Created by FontPrep 20130207 at Thu Sep 25 16:26:16 2014
 By Roald Hacquebord
Copyright (c) 2010-2011 by tyPoland Lukasz Dziedzic with Reserved Font Name "Lato". Licensed under the SIL Open Font License, Version 1.1.
</metadata>
<defs>
<font id="030f5996dac0d7b15fbd4081adedf95b" horiz-adv-x='1024' >
  <font-face 
    font-family="Lato-BoldItalic"
    font-weight="700"
    font-style="italic"
    font-stretch="normal"
    units-per-em="2048"
    panose-1="2 15 8 2 2 2 4 3 2 3"
    ascent="1649"
    descent="-399"
    x-height="1051"
    cap-height="1481"
    bbox="-224 -512 2148 1919"
    underline-thickness="158"
    underline-position="-47"
    slope="-7"
    unicode-range="U+000D-FB02"
  />
<missing-glyph horiz-adv-x="1120" 
d="M110 71h894v1340h-894v-1340zM43 1481h1034v-1481h-1034v1481zM434 418.5q40 41.5 85 41.5q71 0 112 -41t41 -85q0 -72 -41.5 -112t-83.5 -40q-43 0 -68.5 11t-55 40.5t-29.5 86.5t40 98.5zM245 1175q137 111 293 111t239.5 -73t83.5 -204t-61.5 -182t-102 -83.5
t-47.5 -64.5l-22 -98h-173l-18 116q-2 11 -2 33t14.5 46t35.5 44t81.5 63.5t60.5 108.5q0 90 -97 90q-67 0 -109 -22.5t-67 -22.5t-42 30z" />
    <glyph glyph-name="fi" unicode="fi" horiz-adv-x="1138" 
d="M766 1522q98 0 158 -20l-25 -126q-5 -24 -27 -27t-84 -3q-151 0 -233 -66.5t-98 -209.5l-3 -29h604l-126 -1041h-249l107 861h-349l-100 -819l-51 -193q-27 -104 -131 -104h-102l138 1115l-78 14q-56 11 -56 53l12 114h144l4 34q23 200 163 323.5t382 123.5z" />
    <glyph glyph-name="fl" unicode="fl" horiz-adv-x="1165" 
d="M698 1331q-101 0 -163.5 -61.5t-74.5 -182.5l-5 -46h222l-21 -180h-214l-101 -819l-51 -193q-27 -104 -131 -104h-102l138 1115l-78 14q-56 11 -56 53l13 114h142l6 46q21 179 140.5 300.5t319.5 121.5l295 -12h164l-185 -1497h-244l159 1317q-123 14 -173 14z" />
    <glyph glyph-name=".notdef" horiz-adv-x="1120" 
d="M110 71h894v1340h-894v-1340zM43 1481h1034v-1481h-1034v1481zM434 418.5q40 41.5 85 41.5q71 0 112 -41t41 -85q0 -72 -41.5 -112t-83.5 -40q-43 0 -68.5 11t-55 40.5t-29.5 86.5t40 98.5zM245 1175q137 111 293 111t239.5 -73t83.5 -204t-61.5 -182t-102 -83.5
t-47.5 -64.5l-22 -98h-173l-18 116q-2 11 -2 33t14.5 46t35.5 44t81.5 63.5t60.5 108.5q0 90 -97 90q-67 0 -109 -22.5t-67 -22.5t-42 30z" />
    <glyph glyph-name=".null" horiz-adv-x="0" 
 />
    <glyph glyph-name="nonmarkingreturn" unicode="&#xd;" horiz-adv-x="0" 
 />
    <glyph glyph-name="NULL" horiz-adv-x="0" 
 />
    <glyph glyph-name="NULL" horiz-adv-x="0" 
 />
    <glyph glyph-name="space" unicode=" " horiz-adv-x="395" 
 />
    <glyph glyph-name="exclam" unicode="!" horiz-adv-x="684" 
d="M158 138q0 32 11.5 61t32 49.5t49.5 33t76.5 12.5t94 -45t46.5 -94t-12.5 -77t-33.5 -48.5t-49 -32t-60.5 -11.5t-61.5 11.5t-49.5 32t-32 48.5t-11.5 60zM264 520l-1 80q0 168 17 294l71 587h229l-72 -587q-16 -137 -79 -374h-165z" />
    <glyph glyph-name="quotedbl" unicode="&#x22;" horiz-adv-x="802" 
d="M631 934q-65 0 -75 90v161l37 295h212l-37 -295l-41 -161q-11 -43 -32 -66.5t-64 -23.5zM278 934q-65 0 -75 90v161l37 295h212l-37 -295l-41 -161q-11 -43 -32 -66.5t-64 -23.5z" />
    <glyph glyph-name="numbersign" unicode="#" 
d="M459 595h216l90 291h-215zM1025 595q59 0 59 -51q0 -17 -8 -47l-22 -78h-226l-130 -419h-112q-27 0 -44.5 19.5t-17.5 41.5t5 40l100 318h-216l-102 -330q-14 -48 -48.5 -68.5t-72.5 -20.5h-108l131 419h-122q-58 0 -58 52q0 17 8 47l21 77h197l90 291h-221l31 100
q11 39 38 57t81 18h118l106 336q12 39 44 61t70 22h112l-132 -419h215l131 419h110q31 0 50 -17.5t19 -37.5t-4 -31l-105 -333h210l-33 -102q-12 -38 -38 -55.5t-78 -17.5h-108l-91 -291h151z" />
    <glyph glyph-name="dollar" unicode="$" 
d="M601 896l80 390q-183 -20 -213 -96.5t-30 -127.5q0 -103 163 -166zM866 439q0 99 -67 132t-104 46l-87 -428q125 14 191.5 82.5t66.5 167.5zM181 323q31 0 54 -16.5t80.5 -58t141.5 -55.5l96 470q-162 47 -225 98t-93.5 111t-30.5 148q0 187 144.5 325t375.5 148l27 130
q5 25 25.5 44t47.5 19h90l-41 -201q184 -30 304 -161l-70 -89q-29 -40 -55 -40q-31 0 -93.5 36t-127.5 51l-89 -434q171 -54 267 -124t96 -220q0 -207 -147.5 -354.5t-391.5 -163.5l-31 -155q-5 -24 -26 -42.5t-48 -18.5h-90l45 221q-245 31 -380 187l89 112q25 33 56 33z
" />
    <glyph glyph-name="percent" unicode="%" horiz-adv-x="1518" 
d="M994 322q0 -183 100 -183q166 1 167 271q0 80 -31 116t-71 36q-78 0 -121.5 -64.5t-43.5 -175.5zM1449 392q0 -86 -32 -164t-110 -162t-213 -84q-136 0 -212 85.5t-76 226.5q0 194 105.5 311t245.5 117t216 -86.5t76 -243.5zM1338 1480h178l-1194 -1443q-30 -37 -79 -37
h-181l1192 1441q39 39 84 39zM423 913q159 1 159 271q0 80 -30.5 116t-70.5 36q-165 0 -165 -277q0 -146 107 -146zM771 1166q0 -86 -31.5 -164.5t-111 -162.5t-214.5 -84t-210.5 86t-75.5 227q0 192 105.5 309t261.5 117q124 0 200 -86t76 -242z" />
    <glyph glyph-name="ampersand" unicode="&#x26;" horiz-adv-x="1347" 
d="M293 390q0 -99 52.5 -155.5t139.5 -56.5q155 0 281 111l-303 400q-170 -110 -170 -299zM310 1053q0 197 120 320t315 123q156 0 250 -90.5t94 -238.5l-146 -28q-14 -3 -24 -3q-37 0 -46 35q-17 67 -54.5 103t-87.5 36q-92 0 -142.5 -64t-50.5 -166t79 -204l304 -394
q66 118 95 266q11 52 54 52h171q-33 -265 -191 -485l243 -315h-212q-58 0 -88.5 16t-59.5 55l-53 69q-200 -156 -435 -156q-187 0 -295 100t-108 273q0 230 130.5 330.5t201.5 133.5q-64 127 -64 232z" />
    <glyph glyph-name="quotesingle" unicode="'" horiz-adv-x="451" 
d="M278 934q-69 0 -75 90v161l37 295h212l-37 -295l-41 -161q-11 -43 -32 -66.5t-64 -23.5z" />
    <glyph glyph-name="parenleft" unicode="(" horiz-adv-x="565" 
d="M254 -319q-158 327 -158 777q0 286 86.5 561.5t306.5 585.5l102 -65q27 -20 27 -43q0 -24 -18 -53q-291 -486 -291 -964q0 -384 94 -639q18 -47 1 -66.5t-34 -29.5z" />
    <glyph glyph-name="parenright" unicode=")" horiz-adv-x="565" 
d="M291 805q0 384 -94 639q-18 47 -1 66.5t34 29.5l116 65q158 -335 158 -745q0 -319 -86.5 -595.5t-306.5 -583.5l-102 64q-27 20 -27 43q0 24 18 53q291 486 291 964z" />
    <glyph glyph-name="asterisk" unicode="*" horiz-adv-x="753" 
d="M421 1285q-5 17 -5 38t2 37l23 190h117l-23 -188q-4 -37 -21 -74q17 17 55 40l166 100l45 -99l-158 -95q-37 -23 -75 -29q35 -6 67 -28l136 -97l-69 -98l-136 96q-14 11 -28 21.5t-23 22.5q5 -23 5 -40t-2 -31l-25 -191h-116l24 189q4 41 19 73q-13 -13 -28.5 -22.5
t-32.5 -21.5l-159 -96l-45 99l159 96q42 25 77 28q-39 6 -70 29l-136 96l69 100l137 -98l28 -22t23 -25z" />
    <glyph glyph-name="plus" unicode="+" 
d="M777 1200l-52 -422h401l-22 -181h-401l-52 -424h-198l52 424h-399l23 181h398l53 422h197z" />
    <glyph glyph-name="comma" unicode="," horiz-adv-x="460" 
d="M175 294q89 0 128.5 -50t39.5 -111q0 -113 -60.5 -227.5t-165.5 -196.5l-44 40q-37 31 8 83t70 90.5t34 80.5q-62 0 -103 43t-41 105t41 102.5t93 40.5z" />
    <glyph glyph-name="hyphen" unicode="-" horiz-adv-x="679" 
d="M121 720h492l-25 -204h-492z" />
    <glyph glyph-name="period" unicode="." horiz-adv-x="460" 
d="M35 138q0 32 11.5 61t32.5 49.5t49.5 33t76.5 12.5t94 -44.5t46 -94.5q0 -49 -12 -77t-33 -48.5t-49.5 -32t-61 -11.5t-61 11.5t-49.5 32t-32.5 48.5t-11.5 60z" />
    <glyph glyph-name="slash" unicode="/" horiz-adv-x="741" 
d="M15 -99h-104l720 1503q41 86 135 86h102l-713 -1497q-22 -45 -62.5 -68.5t-77.5 -23.5z" />
    <glyph glyph-name="zero" unicode="0" 
d="M572 186q60 0 124.5 43t139.5 180.5t75 478.5q0 214 -64.5 309.5t-166.5 95.5q-156 0 -254.5 -180.5t-98.5 -507.5q0 -328 92.5 -373.5t152.5 -45.5zM696 1496q223 0 346.5 -154t123.5 -449q0 -442 -179 -675.5t-462 -233.5q-207 0 -330 154.5t-123 448.5q0 442 137 620
t254 233.5t233 55.5z" />
    <glyph glyph-name="one" unicode="1" 
d="M422 983q-24 -19 -60 -19t-52 28l-62 107l495 384h202l-161 -1300h271l-23 -183h-815l22 183h302l110 904l20 87z" />
    <glyph glyph-name="two" unicode="2" 
d="M1058 163q0 -25 -20 -163h-1009l9 81q7 59 55 101l508 454q152 136 202.5 213.5t68 133t17.5 133.5t-53.5 126t-144.5 48q-182 0 -259 -177q-28 -71 -97 -71q-14 0 -33 4l-125 22q58 209 206 318.5t341 109.5t305.5 -101t112.5 -269q0 -231 -142.5 -371.5t-217.5 -207.5
l-382 -348q106 28 187 28h394q36 0 56.5 -19.5t20.5 -44.5z" />
    <glyph glyph-name="three" unicode="3" 
d="M882 785q227 -77 227 -305t-166 -362t-397 -134q-306 0 -377 144.5t-90 245.5l114 44q31 12 58 12q54 0 70 -41q48 -154 122 -177.5t135 -23.5q125 0 206 86.5t81 192.5t-70.5 155t-250.5 49l23 173q274 3 313 101.5t39 174.5t-53 123t-145 47t-159 -49t-98 -124t-97 -75
q-14 0 -33 4l-125 22q55 207 202.5 317.5t341.5 110.5t301.5 -96t107.5 -246q0 -230 -107 -290t-173 -79z" />
    <glyph glyph-name="four" unicode="4" 
d="M814 1056q8 59 27 133l-543 -636h455zM1083 365h-133l-44 -365h-221l44 365h-614q-26 0 -49 15t-26 38l-9 124l818 940h237l-112 -929h185l-19 -139q-2 -19 -17 -34t-40 -15z" />
    <glyph glyph-name="five" unicode="5" 
d="M581 758q-110 0 -240 -36l-146 43l211 716h726l-13 -105q-6 -51 -43.5 -83.5t-114.5 -32.5h-414l-95 -322q96 19 193 19q197 0 309 -108t112 -284q0 -256 -178.5 -418.5t-429.5 -162.5q-252 0 -418 171l87 105q26 32 60 32q33 0 108.5 -52t174.5 -52q173 0 261 98.5
t88 247.5q0 102 -64 163t-174 61z" />
    <glyph glyph-name="six" unicode="6" 
d="M379.5 248q62.5 -66 187.5 -66q124 0 216.5 90.5t92.5 213.5t-66.5 187.5t-191.5 64.5t-213 -91.5t-88 -212.5q0 -120 62.5 -186zM716 922q180 0 293 -101.5t113 -282.5q0 -233 -168 -393.5t-417 -160.5q-211 0 -331 122t-120 324q0 247 235 514l414 477q47 59 137 59
h218l-567 -607q96 49 193 49z" />
    <glyph glyph-name="seven" unicode="7" 
d="M359 0h-203l718 1144q39 62 93 116h-716q-22 0 -36.5 14.5t-14.5 35.5l21 171h1021l-11 -97q-8 -69 -33 -112l-741 -1215q-14 -24 -41 -40.5t-57 -16.5z" />
    <glyph glyph-name="eight" unicode="8" 
d="M648 860q126 0 185 79t59 195t-73 146.5t-131 30.5q-115 0 -182 -72.5t-67 -193.5q0 -122 72.5 -153.5t136.5 -31.5zM560 175q130 0 209 77.5t79 206.5q0 154 -90 182.5t-151 28.5q-127 0 -206 -73.5t-79 -215.5q0 -141 87 -173.5t151 -32.5zM871 769q229 -79 229 -300.5
t-159.5 -353t-390.5 -131.5q-230 0 -356.5 103.5t-126.5 277.5q0 316 317 407q-181 82 -181 276q0 195 147 321.5t350 126.5t318 -102t115 -253q0 -272 -262 -372z" />
    <glyph glyph-name="nine" unicode="9" 
d="M899.5 1234.5q-63.5 61.5 -178.5 61.5t-197 -85t-82 -203q0 -231 223 -231q135 0 216.5 83.5t81.5 198.5q0 114 -63.5 175.5zM812 663q-112 -70 -260 -70t-252.5 97.5t-104.5 271.5q0 222 162 378t403 156q203 0 318.5 -117t115.5 -317q0 -201 -88 -328t-141 -191
l-402 -487q-47 -56 -132 -56h-224l529 575q20 23 39.5 44.5t36.5 43.5z" />
    <glyph glyph-name="colon" unicode=":" horiz-adv-x="460" 
d="M135 868q0 32 12 61t33 49.5t49 33t76 12.5t94 -44.5t46 -94.5q0 -49 -12 -77t-33 -48.5t-49 -32t-61 -11.5t-61 11.5t-49 32t-33 48.5t-12 60zM35 138q0 32 11.5 61t32.5 49.5t49.5 33t76.5 12.5t94 -44.5t46 -94.5q0 -49 -12 -77t-33 -48.5t-49.5 -32t-61 -11.5
t-61 11.5t-49.5 32t-32.5 48.5t-11.5 60z" />
    <glyph glyph-name="semicolon" unicode=";" horiz-adv-x="460" 
d="M137 868q0 32 12 61t33 49.5t49 33t76 12.5t94 -44.5t46 -94.5q0 -49 -12 -77t-33 -48.5t-49 -32t-61 -11.5t-61 11.5t-49 32t-33 48.5t-12 60zM170 294q89 0 128.5 -51t39.5 -111q0 -112 -60.5 -226.5t-165.5 -196.5l-44 40q-37 31 8 83t70 90.5t34 80.5q-62 0 -103 43
t-41 105t41 102.5t93 40.5z" />
    <glyph glyph-name="less" unicode="&#x3c;" horiz-adv-x="1092" 
d="M933 414q0 -11 -3 -33t-7.5 -59.5t-13.5 -106.5l-758 424l12 102l863 423l-22 -180q-4 -44 -53 -66l-395 -191q-50 -23 -110 -37q64 -16 101 -37l349 -191q37 -20 37 -48z" />
    <glyph glyph-name="equal" unicode="=" 
d="M197 958h902l-21 -182h-904zM152 600h904l-23 -181h-904z" />
    <glyph glyph-name="greater" unicode="&#x3e;" horiz-adv-x="1092" 
d="M209 966q0 10 0.5 14t2.5 22.5t7 56.5t13 106l759 -424l-12 -102l-863 -423l22 180q4 44 52 67l396 190q49 22 109 37q-59 15 -100 37l-349 192q-37 20 -37 47z" />
    <glyph glyph-name="question" unicode="?" horiz-adv-x="798" 
d="M187 138q0 32 12 61t32.5 49.5t49 33t76.5 12.5t94.5 -45t46.5 -94t-12.5 -77t-33.5 -48.5t-49 -32t-61 -11.5t-61.5 11.5t-49 32t-32.5 48.5t-12 60zM521 1496q156 0 243.5 -83.5t87.5 -229.5t-72 -222t-127 -115t-99.5 -78t-59.5 -96l-41 -152h-168v168q0 87 63.5 143
t171 131.5t107.5 180.5q0 155 -151 155q-100 0 -161.5 -42.5t-86.5 -42.5t-38 31l-52 102q179 150 383 150z" />
    <glyph glyph-name="at" unicode="@" horiz-adv-x="1526" 
d="M594 459q0 -112 82 -112q118 0 186 188l106 290q-28 6 -74 6t-103.5 -31.5t-127 -114.5t-69.5 -226zM62 474q0 249 114 465.5t310.5 344t435.5 127.5t411 -168t172 -435t-134.5 -443.5t-324.5 -176.5q-147 0 -168 138q-120 -137 -271 -137q-99 0 -151.5 67.5t-52.5 152.5
t16.5 150.5t67.5 161.5t179 179t301 83q105 0 152 -17t71 -28l-138 -379q-30 -81 -30 -139q0 -80 85 -80t155 133t70 339t-118.5 324.5t-311.5 118.5t-381 -128t-234.5 -330.5t-46.5 -327.5q0 -260 144.5 -408.5t385.5 -148.5t411 96q26 15 56 15t42 -42l18 -70
q-239 -158 -549 -158q-309 0 -497.5 196t-188.5 525z" />
    <glyph glyph-name="A" unicode="A" horiz-adv-x="1313" 
d="M450 557h431l-101 507q-21 97 -31 170q-30 -79 -74 -171zM1061 0q-70 0 -81 60l-61 310h-552l-138 -310q-11 -24 -36.5 -42t-57.5 -18h-209l716 1481h271l354 -1481h-206z" />
    <glyph glyph-name="B" unicode="B" horiz-adv-x="1228" 
d="M636 836q286 0 286 262q0 93 -53 135.5t-164 42.5h-211l-55 -440h197zM613 207q273 0 273 279q0 70 -51.5 118t-167.5 48h-250l-55 -445h251zM899 762q249 -63 249 -278t-150.5 -349.5t-404.5 -134.5h-521l182 1481h475q352 0 407.5 -130.5t55.5 -200.5
q0 -139 -73 -239.5t-220 -148.5z" />
    <glyph glyph-name="C" unicode="C" horiz-adv-x="1235" 
d="M649 -16q-266 0 -419.5 179.5t-153.5 447.5t103 464.5t283 309t400 112.5q289 0 444 -204l-93 -110q-26 -31 -53 -31q-28 0 -92 59t-194 59q-241 0 -383.5 -170.5t-142.5 -449.5q0 -203 97 -322t249 -119q114 0 178.5 29t120.5 75.5t88 14.5l94 -116q-197 -228 -526 -228
z" />
    <glyph glyph-name="D" unicode="D" horiz-adv-x="1406" 
d="M1114 812q0 224 -96.5 341t-267.5 117h-255l-130 -1058h255q224 0 323.5 123.5t135 239t35.5 237.5zM1386 818q0 -162 -59 -317t-165 -266t-251.5 -173t-317.5 -62h-521l182 1481h522q278 0 444 -178.5t166 -484.5z" />
    <glyph glyph-name="E" unicode="E" horiz-adv-x="1076" 
d="M1117 1481l-26 -212h-596l-52 -421h468l-25 -204h-468l-53 -432h598l-27 -212h-864l182 1481h863z" />
    <glyph glyph-name="F" unicode="F" horiz-adv-x="1056" 
d="M1091 1269h-596l-56 -451h503l-28 -212h-500l-75 -606h-267l182 1481h863z" />
    <glyph glyph-name="G" unicode="G" horiz-adv-x="1358" 
d="M863 539q-49 0 -49 42l17 157h461l-73 -595q-219 -159 -540 -159q-269 0 -436 184t-167 472q0 245 103.5 440.5t284.5 306t405 110.5q306 0 488 -202l-86 -110q-28 -36 -59 -36q-30 1 -58 19q-79 53 -143 77.5t-168 24.5q-216 0 -355.5 -171.5t-139.5 -449.5
q0 -210 102.5 -331.5t262.5 -121.5q159 0 279 60l35 283h-164z" />
    <glyph glyph-name="H" unicode="H" horiz-adv-x="1425" 
d="M1229 0h-267l79 650h-622l-80 -650h-267l182 1481h267l-80 -642h624l80 642h267z" />
    <glyph glyph-name="I" unicode="I" horiz-adv-x="593" 
d="M369 0h-268l182 1481h267z" />
    <glyph glyph-name="J" unicode="J" horiz-adv-x="821" 
d="M466 57q-176 -73 -284 -73t-210 27l20 156q5 50 54 50q24 0 54 -7t78 -7q208 0 245 304l119 974h266l-119 -968q-47 -383 -223 -456z" />
    <glyph glyph-name="K" unicode="K" horiz-adv-x="1320" 
d="M506 855q68 0 106 46l428 522q47 58 126 58h229l-525 -620q-49 -57 -92 -78q58 -23 93 -90l376 -693h-233q-65 0 -80 20t-22 32l-305 552q-14 27 -36.5 38.5t-66.5 11.5h-80l-81 -654h-264l181 1482h266l-77 -627h57z" />
    <glyph glyph-name="L" unicode="L" horiz-adv-x="974" 
d="M364 220h538l-25 -220h-805l182 1481h265z" />
    <glyph glyph-name="M" unicode="M" horiz-adv-x="1756" 
d="M1541 1481h202l-182 -1481h-234l119 965q5 44 22 122l-509 -845q-34 -58 -100 -58h-37q-67 0 -87 58l-305 842q-2 -79 -7 -115l-117 -969h-234l182 1481h200q55 0 66.5 -14t18.5 -29l306 -846q9 -27 16 -54.5t15 -56.5q25 60 57 111l514 846q23 39 50 41t44 2z" />
    <glyph glyph-name="N" unicode="N" horiz-adv-x="1425" 
d="M393 1481q49 0 61.5 -14.5t20.5 -28.5l577 -1011q4 62 10 111l116 943h234l-183 -1481h-136q-64 0 -88 46l-574 1011q-4 -55 -8 -91l-117 -966h-234l182 1481h139z" />
    <glyph glyph-name="O" unicode="O" horiz-adv-x="1499" 
d="M1208 812q0 224 -98.5 345t-269.5 121q-222 0 -357 -173.5t-135 -458.5q0 -204 97.5 -323t269.5 -119q223 0 323 127t135 243t35 238zM1481 848q0 -132 -27.5 -242.5t-103.5 -254.5t-257 -255.5t-408 -111.5q-277 0 -443 185t-166 471q0 370 227.5 613.5t568.5 243.5
q277 0 401 -138t166 -258.5t42 -252.5z" />
    <glyph glyph-name="P" unicode="P" horiz-adv-x="1182" 
d="M620 731q150 0 227 86t77 240t-89 186.5t-150 32.5h-184l-68 -545h187zM711 1481q241 0 360.5 -110.5t119.5 -296.5q0 -246 -154 -398t-444 -152h-185l-65 -524h-264l181 1481h451z" />
    <glyph glyph-name="Q" unicode="Q" horiz-adv-x="1499" 
d="M1208 812q0 224 -98.5 345t-269.5 121q-222 0 -357 -173.5t-135 -458.5q0 -204 97.5 -323t269.5 -119q223 0 323 127t135 243t35 238zM76 632q0 132 27 242.5t103 254t257 256t409 112.5q277 0 443 -185t166 -472q0 -350 -138.5 -510.5t-221.5 -215.5l296 -405h-217
q-104 0 -146 61l-170 238q-258 -60 -469 33t-275 276t-64 315z" />
    <glyph glyph-name="R" unicode="R" horiz-adv-x="1238" 
d="M592 773q152 0 229.5 83.5t77.5 196.5q0 114 -59.5 168.5t-183.5 54.5h-155l-63 -503h154zM681 1481q244 0 363 -99t119 -269t-93 -297.5t-259 -179.5q48 -28 77 -84l264 -552h-239q-66 0 -91 53l-217 481q-12 27 -30 38.5t-56 11.5h-104l-72 -584h-264l181 1481h421z
" />
    <glyph glyph-name="S" unicode="S" horiz-adv-x="1012" 
d="M650 1280q-126 0 -187 -59.5t-61 -153.5q0 -111 158.5 -169t278 -122t119.5 -247q0 -240 -149 -392.5t-390 -152.5q-198 0 -296 75t-133 119l94 127q26 33 52 33q27 0 43.5 -10.5t35 -25t72 -57.5t168.5 -43t180 65.5t65 181.5q0 89 -62.5 125t-111.5 53t-139.5 50.5
t-163 107.5t-72.5 225q0 199 140 342.5t366 143.5q178 0 264 -66t115 -104l-79 -112q-27 -39 -55.5 -39t-50 16t-75 52.5t-126.5 36.5z" />
    <glyph glyph-name="T" unicode="T" horiz-adv-x="1122" 
d="M1221 1481l-28 -218h-406l-155 -1263h-264l154 1263h-406l26 218h1079z" />
    <glyph glyph-name="U" unicode="U" horiz-adv-x="1370" 
d="M886.5 316.5q93.5 103.5 113.5 274.5l110 890h265l-108 -890q-33 -266 -208.5 -436.5t-424.5 -170.5t-380.5 140t-131.5 370q0 46 6 97l108 890h266l-110 -889q-4 -38 -4 -91t17 -109t67.5 -117.5t185.5 -61.5t228.5 103.5z" />
    <glyph glyph-name="V" unicode="V" horiz-adv-x="1347" 
d="M337 1481q70 0 81 -61l197 -922q26 -123 37 -201q22 71 81 201l421 922q10 23 36.5 42t58.5 19h215l-731 -1481h-241l-368 1481h213z" />
    <glyph glyph-name="W" unicode="W" horiz-adv-x="1979" 
d="M340 1481q35 0 56 -17t25 -44l130 -908q5 -33 6.5 -71t3.5 -80q27 84 54 151l369 908q9 23 35.5 42t58.5 19h62q35 0 56.5 -17t26.5 -44l147 -908q13 -86 16 -146q26 94 47 146l351 908q9 24 36 42.5t60 18.5h210l-605 -1481h-241l-167 1026q-10 61 -12 91
q-8 -26 -11 -31l-442 -1086h-239l-242 1481h209z" />
    <glyph glyph-name="X" unicode="X" horiz-adv-x="1291" 
d="M404 1481q44 0 59 -34l227 -511q10 22 25 43l314 465q25 37 61 37h277l-504 -678l372 -803h-238q-42 0 -64 46l-257 593q-5 -8 -9.5 -16.5t-10.5 -16.5l-383 -560q-30 -46 -83 -46h-265l572 791l-333 690h240z" />
    <glyph glyph-name="Y" unicode="Y" horiz-adv-x="1241" 
d="M348 1481q59 0 82 -61l192 -512q23 -60 37 -141q26 55 78 141l319 512q36 61 94 61h220l-607 -904l-72 -577h-266l72 578l-385 903h236z" />
    <glyph glyph-name="Z" unicode="Z" horiz-adv-x="1160" 
d="M1233 1481l-11 -83q-3 -25 -30 -64l-818 -1122h686l-27 -212h-1040l10 81q4 34 29 63l820 1125h-657l25 212h1013z" />
    <glyph glyph-name="bracketleft" unicode="[" horiz-adv-x="565" 
d="M546 1424h-124l-196 -1580h127q23 0 39.5 -12.5t16.5 -35.5l-13 -108h-392l233 1894h392l-12 -96q-3 -25 -23.5 -43.5t-47.5 -18.5z" />
    <glyph glyph-name="backslash" unicode="\" horiz-adv-x="739" 
d="M209 1490q94 0 115 -86l350 -1503h-103q-39 0 -73 23.5t-45 68.5l-347 1497h103z" />
    <glyph glyph-name="bracketright" unicode="]" horiz-adv-x="565" 
d="M51 -156h126l195 1580h-126q-26 0 -41.5 16t-15.5 39l13 103h392l-234 -1894h-392l13 94q3 27 23 44.5t47 17.5z" />
    <glyph glyph-name="asciicircum" unicode="^" 
d="M923 796q-41 0 -64 42l-162 296q-40 78 -50 106q-15 -50 -46 -106l-159 -296q-22 -42 -67 -42h-195l382 685h164l382 -685h-185z" />
    <glyph glyph-name="underscore" unicode="_" horiz-adv-x="743" 
d="M664 -141l-20 -159h-743l19 159h744z" />
    <glyph glyph-name="grave" unicode="`" horiz-adv-x="605" 
d="M266 1496q39 0 56.5 -13.5t28.5 -39.5l103 -249h-140q-51 0 -74 35l-203 267h229z" />
    <glyph glyph-name="a" unicode="a" horiz-adv-x="1059" 
d="M413 191q91 0 166.5 107.5t120.5 267.5l40 318q-28 3 -51 3q-167 0 -282 -142t-115 -341q0 -111 35 -162t86 -51zM39 411q0 233 160 405t293.5 211t217.5 39q175 0 296 -47l-127 -1019h-134q-82 0 -82 76l8 143q-150 -234 -348 -234q-124 0 -204 96.5t-80 329.5z" />
    <glyph glyph-name="b" unicode="b" horiz-adv-x="1101" 
d="M806 650q0 218 -136 218q-82 0 -167 -105t-135 -266l-31 -251q64 -69 169 -69q129 0 214.5 146t85.5 327zM411 843q161 224 364 224t243 -146t40 -240t-18.5 -180t-71 -204.5t-170.5 -215t-263 -96.5q-146 0 -239 119l-8 -34q-8 -37 -27.5 -53.5t-61.5 -16.5h-138
l186 1522h247z" />
    <glyph glyph-name="c" unicode="c" horiz-adv-x="891" 
d="M51 423q0 261 158.5 452t393.5 191q193 0 308 -147l-81 -97q-24 -24 -44 -24t-34.5 10.5t-49.5 33.5t-98 23q-127 0 -213.5 -124.5t-86.5 -318.5q0 -116 52 -179t124 -63t110.5 17t65 37t47.5 37t44 17t47 -24l64 -78q-105 -115 -195.5 -158t-202.5 -43
q-202 0 -305.5 118t-103.5 320z" />
    <glyph glyph-name="d" unicode="d" horiz-adv-x="1103" 
d="M296 401q0 -218 136 -218q81 0 166.5 105.5t133.5 262.5l32 255q-63 68 -168 68q-130 0 -215 -146.5t-85 -326.5zM779 0q-83 0 -83 76l9 153q-164 -244 -372 -244t-248.5 145.5t-40.5 240.5t18.5 180.5t69.5 202.5t169.5 215t254.5 98q135 0 228 -95l69 550h248
l-188 -1522h-134z" />
    <glyph glyph-name="e" unicode="e" horiz-adv-x="968" 
d="M422.5 811.5q-72.5 -77.5 -105.5 -208.5q335 45 365 104t30 83t-7 40t-30 37.5t-102 21.5q-78 0 -150.5 -77.5zM940 794q0 -138 -138.5 -226.5t-504.5 -126.5v-13q0 -248 210 -248q110 0 174 47.5t84.5 57.5t45.5 10t41 -23l64 -77q-115 -115 -216.5 -162.5t-218.5 -47.5
q-209 0 -320 119.5t-111 316.5q0 258 156.5 451t402.5 193q155 0 243 -79.5t88 -191.5z" />
    <glyph glyph-name="f" unicode="f" horiz-adv-x="651" 
d="M61 917q0 12 14 124h141l9 78q22 178 138.5 282.5t286.5 104.5q66 0 121 -19l-22 -131q-7 -33 -65 -33q-104 0 -155 -49.5t-65 -162.5l-8 -70h235l-23 -180h-226l-99 -818l-52 -193q-29 -103 -130 -103h-102l135 1114l-81 15q-23 4 -37.5 16.5t-14.5 24.5z" />
    <glyph glyph-name="g" unicode="g" horiz-adv-x="993" 
d="M168 -69q0 -125 201 -125q112 0 184.5 54t72.5 136q0 24 -5 54q-110 18 -185 18q-134 0 -201 -38.5t-67 -98.5zM323 657q0 -164 138 -164q86 0 137 73.5t51 170.5q0 159 -140 159q-88 0 -137 -69t-49 -170zM881 746q0 -47 -10.5 -84t-25.5 -69t-32 -60t-42.5 -76.5
t-25.5 -102.5q0 -53 17.5 -88.5t55.5 -103t38 -145.5q0 -162 -139 -273.5t-350 -111.5t-325 75.5t-114 192.5q0 159 144.5 234.5t342.5 75.5q81 0 157 -13q-9 36 -9 81t33 117q-79 -55 -207 -55q-127 0 -212 83t-85 241t119 280.5t327 122.5q116 0 207 -54h294l-11 -82
q-9 -55 -50 -66l-108 -28q11 -44 11 -91z" />
    <glyph glyph-name="h" unicode="h" horiz-adv-x="1111" 
d="M420 871q152 196 343 196q190 0 228 -120.5t38 -172.5t-5 -105l-79 -669h-253l79 669q5 45 5 89t-25 73.5t-71 29.5q-87 0 -171 -87t-128 -223l-67 -551h-253l186 1522h252z" />
    <glyph glyph-name="i" unicode="i" horiz-adv-x="527" 
d="M465.5 1246q-49.5 -48 -109.5 -48q-61 0 -108 47t-47 112t47 113.5t108 48.5t110 -47.5t49 -112.5t-49.5 -113zM452 1051l-126 -1051h-250l126 1051h250z" />
    <glyph glyph-name="j" unicode="j" horiz-adv-x="518" 
d="M457.5 1246q-49.5 -48 -109.5 -48q-61 0 -108 47t-47 112t47 113.5t108 48.5t110 -47.5t49 -112.5t-49.5 -113zM318 -36q-17 -144 -107.5 -238.5t-238.5 -94.5q-75 0 -133 20l25 136q6 20 19.5 26t64.5 6t82 31.5t41 113.5l133 1087h248z" />
    <glyph glyph-name="k" unicode="k" horiz-adv-x="1043" 
d="M419 650q40 0 69 34l279 323q40 44 87 44h225l-346 -391q-40 -46 -80 -70q24 -18 58 -80l260 -510h-219q-54 0 -76 45l-204 398q-12 24 -25 31t-41 7h-34l-59 -481h-250l187 1522h250l-107 -872h26z" />
    <glyph glyph-name="l" unicode="l" horiz-adv-x="510" 
d="M67 0l184 1522h249l-185 -1522h-248z" />
    <glyph glyph-name="m" unicode="m" horiz-adv-x="1618" 
d="M1287 768q0 37 -20.5 64.5t-62.5 27.5q-82 0 -149.5 -79.5t-111.5 -222.5l-65 -558h-249l79 669q5 55 5 95q0 96 -86 96q-123 0 -181 -119.5t-79 -191.5l-66 -549h-248l128 1052h128q84 0 84 -77v-3q0 -2 -1 -5l-1 -36q-1 -33 -3 -77q140 213 327 213q97 0 153 -64.5
t65 -186.5q144 251 358 251q118 0 182 -79.5t64 -228.5q0 -52 -5 -90l-79 -669h-250q84 731 84 768z" />
    <glyph glyph-name="n" unicode="n" horiz-adv-x="1102" 
d="M768 732q0 128 -96 128q-92 0 -179.5 -96t-128.5 -248l-58 -516h-253l126 1052h129q84 0 84 -82l-7 -136q158 233 378 233q118 0 188 -83.5t70 -233.5q0 -28 -5 -81l-79 -669h-253q84 727 84 732z" />
    <glyph glyph-name="o" unicode="o" horiz-adv-x="1044" 
d="M462 -15q-194 0 -306 117.5t-112 322.5q0 273 162 457.5t390 184.5q179 0 292 -117t113 -323q0 -269 -119 -406t-219.5 -186.5t-200.5 -49.5zM297 427q0 -248 174 -248q122 0 200 130t78 316q0 248 -176 248q-123 0 -199.5 -130.5t-76.5 -315.5z" />
    <glyph glyph-name="p" unicode="p" horiz-adv-x="1085" 
d="M798 650q0 218 -136 218q-83 0 -167 -104t-135 -264l-30 -255q64 -68 168 -68q129 0 214.5 146t85.5 327zM309 1052q84 0 84 -64v-3q0 -3 -1 -19t-2 -50t-4 -97q76 114 171.5 181t202.5 67q209 0 249.5 -146t40.5 -240t-18.5 -180t-71 -204.5t-170.5 -215t-255 -96.5
t-226 95l-52 -423h-246l170 1395h128z" />
    <glyph glyph-name="q" unicode="q" horiz-adv-x="1059" 
d="M689 887q-167 0 -282 -142t-115 -341q0 -111 35 -162t85 -51q91 0 166 104.5t120 264.5l42 325q-28 2 -51 2zM39 411q0 233 160 405t293.5 211t217.5 39q175 0 296 -47l-170 -1362h-164q-77 0 -77 80q0 1 0.5 4.5t2 17t4.5 41t9 77t16 126t24 187.5q-145 -205 -328 -205
q-124 0 -204 96.5t-80 329.5z" />
    <glyph glyph-name="r" unicode="r" horiz-adv-x="744" 
d="M687 1058q42 0 85 -19l-46 -241q-51 22 -97 21q-188 0 -273 -359l-55 -460h-248l128 1052h128q84 0 84 -69v-4q0 -4 -1 -21t-2 -54.5t-4 -104.5q136 259 301 259z" />
    <glyph glyph-name="s" unicode="s" horiz-adv-x="803" 
d="M486 890q-73 0 -116 -36.5t-43 -79.5t17.5 -65t46.5 -38.5t66 -30t104.5 -41.5t122 -82.5t54.5 -143.5q0 -171 -119.5 -280t-311.5 -109q-148 0 -220 50.5t-95 78.5l61 96q23 36 54.5 36t86.5 -42.5t122 -42.5q106 0 151.5 40.5t45.5 88.5q0 47 -17.5 70t-46.5 40
t-66 29.5t-103 37.5t-121.5 77.5t-55.5 140.5q0 166 109.5 274.5t295.5 108.5t308 -122l-65 -92q-21 -30 -43 -30q-23 0 -41.5 10.5t-63 33.5t-117.5 23z" />
    <glyph glyph-name="t" unicode="t" horiz-adv-x="726" 
d="M151 252q0 7 16 138l58 471h-99q-39 0 -39 43q0 1 0.5 4t1.5 14t3.5 32.5t6.5 60.5l160 27l84 287q13 43 57 43h136l-41 -331h254l-22 -180h-255l-56 -458q-5 -42 -7.5 -66.5t-5 -41.5t-2.5 -40t19.5 -45.5t47.5 -22.5t43 6t26.5 12t20 11.5t22.5 5.5t24 -22l54 -123
q-113 -93 -244 -93t-195.5 60t-67.5 170v38z" />
    <glyph glyph-name="u" unicode="u" horiz-adv-x="1100" 
d="M335 317q-1 -126 95 -126q87 0 171.5 86.5t129.5 228.5l66 545h253l-127 -1051h-128q-60 0 -75 28t-15 48v4l6 128q-158 -223 -371 -223q-118 0 -188 82.5t-70 232.5q0 46 5 84l79 667h253q-84 -727 -84 -734z" />
    <glyph glyph-name="v" unicode="v" horiz-adv-x="1017" 
d="M278 1051q53 0 62 -47l111 -562q13 -64 21 -198q32 110 72 198l251 562q21 47 69 47h200l-518 -1051h-213l-262 1051h207z" />
    <glyph glyph-name="w" unicode="w" horiz-adv-x="1502" 
d="M270 1051q27 0 44.5 -13.5t19.5 -33.5l61 -562q5 -46 5.5 -89t2.5 -86q15 43 32.5 86t35.5 89l228 564q19 47 68 47h109q53 0 60 -47l88 -564q7 -46 12 -89l10 -86q27 107 54 175l204 562q7 20 25.5 33.5t41.5 13.5h184l-433 -1051h-195q-32 0 -39 45l-101 607
q-6 41 -9 79l-14 -40t-15 -41l-250 -605q-18 -45 -55 -45h-187l-178 1051h191z" />
    <glyph glyph-name="x" unicode="x" horiz-adv-x="1030" 
d="M347 1051q41 0 56 -32l145 -313q15 30 30 51l184 258q25 36 56 36h230l-370 -484l270 -567h-230q-41 0 -64 46l-160 369q-10 -22 -24 -43l-233 -326q-35 -46 -70 -46h-222l416 568l-243 483h229z" />
    <glyph glyph-name="y" unicode="y" horiz-adv-x="1017" 
d="M298 -343h-187l233 423l-265 971h212q48 0 60 -47l129 -545q12 -55 16 -105q22 54 47 106l259 545q23 46 69 46h203l-694 -1342q-27 -52 -82 -52z" />
    <glyph glyph-name="z" unicode="z" horiz-adv-x="897" 
d="M890 946q-7 -60 -41 -94l-525 -657h461l-22 -195h-764l13 105q5 44 41 88l530 664h-452l24 194h748z" />
    <glyph glyph-name="braceleft" unicode="{" horiz-adv-x="565" 
d="M349 -312q-235 0 -275 113t-40 179q0 91 47 245.5t47 226.5q0 112 -96 112l17 142q76 0 105.5 62.5t29.5 193.5l-5 166q0 335 150 394.5t254 59.5h48l-14 -109q-6 -35 -28 -42t-29 -7h-7q-135 0 -154 -187q-7 -73 -7 -189t-5 -170q-9 -96 -57 -160.5t-120 -83.5
q59 -20 91 -71t32 -113q0 -84 -43 -231t-43 -222q0 -153 111 -153h9q14 0 29.5 -10t15.5 -22v-4l-14 -120h-49z" />
    <glyph glyph-name="bar" unicode="|" horiz-adv-x="614" 
d="M147 1584h197v-1927h-197v1927z" />
    <glyph glyph-name="braceright" unicode="}" horiz-adv-x="565" 
d="M248 1582q234 0 274.5 -113t40.5 -179q0 -91 -47 -245.5t-47 -226.5q0 -112 96 -112l-17 -142q-76 0 -105.5 -63t-29.5 -193l5 -167q0 -334 -150.5 -393.5t-253.5 -59.5h-48l14 109q2 22 20 35t37 13h7q135 0 154 188q7 73 7 189t5 170q9 98 56 160t121 84q-59 20 -91 71
t-32 113q0 82 43 230.5t43 222.5q0 152 -111 152h-9q-14 0 -29.5 10t-15.5 22v3l14 122h49z" />
    <glyph glyph-name="asciitilde" unicode="~" 
d="M713 664q45 0 77 36.5t32 103.5h204q0 -159 -82 -253t-227 -94q-81 0 -162 31t-120 45.5t-83 14.5t-76.5 -37t-32.5 -103h-204q0 157 81.5 252t227.5 95q78 0 160.5 -31.5t121 -45.5t83.5 -14z" />
    <glyph glyph-name="uni00A0" unicode="&#xa0;" horiz-adv-x="395" 
 />
    <glyph glyph-name="exclamdown" unicode="&#xa1;" horiz-adv-x="684" 
d="M238 912q0 32 11.5 60.5t32.5 49t49 33t76 12.5t94.5 -45t46.5 -94t-12.5 -77t-33.5 -48.5t-49 -32t-61 -11.5t-61 11.5t-49 32t-32.5 49t-11.5 60.5zM434 575l1 -69q0 -158 -17 -303l-67 -548h-220l68 548q16 132 75 372h160z" />
    <glyph glyph-name="cent" unicode="&#xa2;" 
d="M367 451q0 -99 42.5 -170t121.5 -98l144 695q-152 -16 -230 -125.5t-78 -301.5zM126 464q0 112 40 222.5t157 238.5t391 138l34 164q5 24 25.5 43t47.5 19h90l-49 -235q151 -26 253 -133l-74 -85q-25 -29 -46 -29q-23 0 -71.5 25.5t-98.5 37.5l-144 -700q84 8 137 37
t74 41t47 12t38 -20l56 -86q-144 -147 -390 -166l-32 -155q-5 -24 -25.5 -42.5t-47.5 -18.5h-91l46 219q-167 25 -267 147.5t-100 325.5z" />
    <glyph glyph-name="sterling" unicode="&#xa3;" 
d="M502 207h612l-13 -102q-4 -38 -37.5 -71.5t-79.5 -33.5h-983l19 154q71 16 111 58.5t51 127.5l34 276h-159l13 99q3 23 24 41.5t51 18.5h91l29 247q23 201 170 337.5t373 136.5q305 0 398 -265l-106 -64q-30 -15 -64 -15t-54 28q-41 59 -80 84.5t-105 25.5
q-120 0 -194 -70.5t-88 -195.5l-30 -249h458l-11 -97q-2 -24 -23.5 -43t-51.5 -19h-391l-25 -210q-15 -133 -99 -219q89 20 160 20z" />
    <glyph glyph-name="currency" unicode="&#xa4;" 
d="M497.5 554q55.5 -57 135.5 -57t136.5 56.5t56.5 137.5t-57.5 137t-135.5 56t-134.5 -56.5t-56.5 -136.5t55.5 -137zM255 686q0 107 53 198l-155 155l127 125l154 -153q89 56 196 56q106 0 197 -53l156 155l127 -126l-156 -154q58 -92 58 -198t-54 -195l156 -156
l-128 -126l-155 154q-89 -56 -197 -56t-195 53l-155 -156l-127 127l154 153q-56 90 -56 197z" />
    <glyph glyph-name="yen" unicode="&#xa5;" 
d="M340 1480q63 0 81 -61l169 -511q18 -54 34 -155q26 79 68 155l293 511q33 61 94 61h206l-513 -834h288l-17 -135h-329l-13 -98h329l-16 -137h-330l-34 -276h-243l33 276h-330l18 137h329l11 98h-329l17 135h286l-307 834h205z" />
    <glyph glyph-name="brokenbar" unicode="&#xa6;" horiz-adv-x="614" 
d="M147 484h197v-827h-197v827zM147 1584h197v-828h-197v828z" />
    <glyph glyph-name="section" unicode="&#xa7;" horiz-adv-x="952" 
d="M419 864q-89 -51 -89 -126t63.5 -114.5t111.5 -62t96 -48.5q82 47 82 127t-61.5 118t-108.5 59.5t-94 46.5zM225 1138q0 148 109.5 252t300.5 104q102 0 180.5 -35.5t124.5 -92.5l-64 -88q-22 -30 -46 -30t-42.5 11t-63.5 34t-97 23q-89 0 -136.5 -41t-47.5 -84
q0 -44 20 -67.5t52.5 -44.5t73.5 -40.5t115 -56t136.5 -101t62.5 -162.5q0 -202 -185 -288q76 -74 76 -165q0 -174 -116.5 -282t-320.5 -108q-149 0 -223.5 50t-98.5 78l68 92q25 35 57 35q33 0 87.5 -42t144.5 -42t136 41.5t46 94.5t-19.5 80t-52.5 49t-75 40.5
t-118.5 53.5t-138.5 95.5t-62 167.5q0 197 193 279q-76 78 -76 190z" />
    <glyph glyph-name="dieresis" unicode="&#xa8;" horiz-adv-x="605" 
d="M739 1346q0 -58 -41.5 -98t-85.5 -40q-73 0 -114 40t-41 84q0 72 41 114.5t85 42.5t70 -11.5t56 -42.5t30 -89zM357 1346q0 -59 -43 -98.5t-86 -39.5q-71 0 -112 40t-41 84q0 72 41 114.5t84 42.5t69 -11.5t57 -42t31 -89.5z" />
    <glyph glyph-name="copyright" unicode="&#xa9;" horiz-adv-x="1620" 
d="M221 718q0 -111 47.5 -226.5t130.5 -201t196 -135t221 -49.5t188 23t149.5 63.5t126 98t96.5 128t62 151.5t22 170t-22 171t-82 189t-203.5 193t-314.5 86q-257 0 -437 -184.5t-180 -476.5zM83 740.5q0 104.5 27 201t76.5 180.5t118.5 153.5t152.5 118.5t179.5 76
t200.5 27t201.5 -27t224 -101t229 -249t102 -380t-129 -424.5t-326 -274.5t-301 -55t-200.5 27t-180 76t-152.5 118t-118.5 152.5t-76.5 180t-27 201zM1190 418q-117 -150 -334 -150t-341 135.5t-124 341.5t135 339.5t338 133.5q204 0 330 -137l-67 -91q-17 -24 -39 -24
t-37.5 10t-54 32.5t-111.5 22.5q-132 0 -201 -77t-69 -212q0 -134 66 -209.5t161 -75.5t133 19.5t55 30.5t40 17q23 0 36 -17z" />
    <glyph glyph-name="ordfeminine" unicode="&#xaa;" horiz-adv-x="657" 
d="M306 1021q0 -48 61 -48t118 56l11 90q-190 -7 -190 -98zM685 1308v-20q0 -19 -51 -427h-82q-24 0 -35 7.5t-19 28.5l-8 37q-80 -64 -122.5 -72.5t-73.5 -8.5q-73 0 -115.5 38.5t-42.5 92.5q0 233 373 243l3 43q0 64 -25 76.5t-51 12.5q-36 0 -83.5 -24t-73.5 -24t-41 31
l-25 58q112 99 267 99q91 0 133.5 -45.5t57 -84t14.5 -61.5z" />
    <glyph glyph-name="guillemotleft" unicode="&#xab;" horiz-adv-x="943" 
d="M763 227q0 -42 -44 -61l-85 -37l-194 406l5 30l292 405l75 -38q33 -13 33 -38t-20 -57l-156 -245q-17 -26 -38 -43q10 -9 26 -41l98 -245q8 -19 8 -36zM446 227q0 -42 -44 -61l-85 -37l-193 406l5 30l292 405l75 -38q32 -13 32 -37t-19 -58l-157 -245q-17 -26 -38 -43
q12 -10 27 -41l97 -245q8 -19 8 -36z" />
    <glyph glyph-name="logicalnot" unicode="&#xac;" 
d="M175 778h904l-58 -471h-207l36 290h-696z" />
    <glyph glyph-name="uni00AD" unicode="&#xad;" horiz-adv-x="679" 
d="M121 720h492l-25 -204h-492z" />
    <glyph glyph-name="registered" unicode="&#xae;" horiz-adv-x="1620" 
d="M721 773h91q144 0 158 52t14 84q0 69 -31 98t-123 29h-109v-263zM1200 937q0 -198 -193 -258q34 -19 69 -81l186 -314h-211q-45 0 -64 33l-148 270q-15 29 -62 29h-56v-332h-219v918h328q370 0 370 -265zM218 718q0 -111 47.5 -226.5t179.5 -250.5t391 -135
q167 0 349.5 106t227.5 272.5t45 255.5t-22 171t-62 153.5t-96.5 129t-126 99t-149 64t-166.5 22.5t-166.5 -22.5t-148 -64t-124.5 -99t-96 -129t-61.5 -153.5t-21.5 -193zM81 766q0 130 59.5 268t161.5 241t240 162.5t268 59.5t227 -27t224 -101t229 -249t102 -380
t-129 -424.5t-326 -274.5t-301.5 -55t-200.5 27t-180 76t-153 118t-118 152.5t-76 180t-27 226.5z" />
    <glyph glyph-name="macron" unicode="&#xaf;" horiz-adv-x="605" 
d="M132 1402h566l-19 -157h-566z" />
    <glyph glyph-name="degree" unicode="&#xb0;" horiz-adv-x="802" 
d="M356 1020q51 -51 127 -51t126.5 50.5t50.5 128.5t-50.5 130.5t-126.5 52.5t-127 -53t-51 -130t51 -128zM736 1397.5q103 -101.5 103 -245.5t-103 -247t-251.5 -103t-251.5 101.5t-103 248.5q0 146 102.5 246.5t251.5 100.5t252 -101.5z" />
    <glyph glyph-name="plusminus" unicode="&#xb1;" 
d="M66 263h996l-23 -181h-995zM785 1266l-45 -366h401l-23 -181h-400l-43 -352h-198l43 352h-397l20 181h400l45 366h197z" />
    <glyph glyph-name="twosuperior" unicode="&#xb2;" horiz-adv-x="681" 
d="M544 1473q0 33 -19 53t-53 20q-57 0 -99 -68q-21 -37 -62 -37q-11 0 -25 2l-95 15q29 112 111 170.5t192 58.5t169 -54.5t59 -141.5q0 -117 -75.5 -187t-111.5 -103l-155 -140q68 18 110 18h142q52 0 52 -45l-8 -82l-4 -30h-552l8 57q5 41 37 69l242 213q137 118 137 212
z" />
    <glyph glyph-name="threesuperior" unicode="&#xb3;" horiz-adv-x="681" 
d="M568 1473q0 70 -71 70t-104 -63q-25 -39 -58 -39q-11 0 -25 2l-89 15q29 111 110.5 170t185.5 59t164 -51.5t60 -125.5t-30 -119t-100 -70q103 -36 103 -138q0 -128 -91 -199t-208 -71q-165 0 -204 74t-51 130l81 33q17 7 47 7t41 -28q26 -71 86 -71q61 0 91.5 31.5
t30.5 76.5t-31.5 63t-110.5 18l16 122q87 1 122 24.5t35 79.5z" />
    <glyph glyph-name="acute" unicode="&#xb4;" horiz-adv-x="605" 
d="M407 1194h-146l164 249q17 27 38 40t60 13h237l-268 -267q-35 -35 -85 -35z" />
    <glyph glyph-name="mu" unicode="&#xb5;" horiz-adv-x="1075" 
d="M327 334q0 -159 137 -159q108 0 217 107l96 768h243l-129 -1050h-150q-46 0 -55 45l-7 83q-69 -65 -154.5 -103t-158.5 -8t-103 62q2 -14 2 -17v-38q0 -55 -7 -116l-31 -253h-121q-96 0 -96 85v8t1 9l160 1293h244q-88 -700 -88 -716z" />
    <glyph glyph-name="paragraph" unicode="&#xb6;" horiz-adv-x="1434" 
d="M97 1021q0 88 38 173t146 186t339 101h902l-26 -212h-220l-182 -1483h-221l182 1483h-241l-181 -1483h-221l105 859q-193 0 -306.5 104t-113.5 272z" />
    <glyph glyph-name="periodcentered" unicode="&#xb7;" horiz-adv-x="572" 
d="M171 746.5q57 55.5 137 55.5t136.5 -56.5t56.5 -135t-56.5 -135t-136.5 -56.5t-137 55.5t-57 136t57 136z" />
    <glyph glyph-name="cedilla" unicode="&#xb8;" horiz-adv-x="605" 
d="M414 -191q0 -77 -70.5 -121.5t-163.5 -44.5t-157 24l33 76q8 21 22 21t20.5 -2.5t22 -8t42.5 -5.5q26 0 42 16t16 40t-30.5 37t-97.5 22l61 151h152l-28 -73q136 -34 136 -132z" />
    <glyph glyph-name="onesuperior" unicode="&#xb9;" horiz-adv-x="681" 
d="M346 1399q-19 -13 -41 -13t-36 20l-45 76l261 197h148l-78 -630h105l-15 -127h-423l17 127h142l44 365l11 50z" />
    <glyph glyph-name="ordmasculine" unicode="&#xba;" horiz-adv-x="734" 
d="M325 1125q0 -134 104 -134q144 0 144 231q0 134 -100 134q-121 0 -134.5 -89.5t-13.5 -141.5zM689 1422q74 -76 74 -181q0 -188 -98.5 -290t-239.5 -102t-215.5 76t-74.5 203q0 169 100.5 269.5t240.5 100.5q139 0 213 -76z" />
    <glyph glyph-name="guillemotright" unicode="&#xbb;" horiz-adv-x="943" 
d="M431 208q0 27 18 55l158 245q18 27 36 41q-17 16 -26 43l-99 245q-6 16 -6 32q0 42 45 63l84 38l192 -405l-4 -30l-291 -406l-75 37q-32 15 -32 42zM196 869q0 42 45 63l84 38l191 -405l-3 -30l-292 -406l-75 37q-57 27 -14 97l159 245q20 30 36 41q-17 16 -26 43
l-99 245q-6 16 -6 32z" />
    <glyph glyph-name="onequarter" unicode="&#xbc;" horiz-adv-x="1510" 
d="M1206 469q6 54 22 114l-238 -281h196zM308 1200q-16 -12 -39 -12t-41 25l-42 70l261 198h148l-78 -631h106l-16 -127h-423l17 127h142l43 359q4 32 12 57zM1380 167h-64l-21 -167h-147l20 167h-297q-47 0 -49 37l-7 87l405 466h169l-57 -455h98l-12 -102q-6 -33 -38 -33z
M1339 1480h101l-969 -1407q-51 -73 -133 -73h-100l960 1396q59 84 141 84z" />
    <glyph glyph-name="onehalf" unicode="&#xbd;" horiz-adv-x="1510" 
d="M315 1200q-16 -12 -40 -12t-39 25l-42 70l261 198h147l-78 -631h106l-16 -127h-423l17 127h142l43 359q4 35 13 57zM1189 158h141q52 0 52 -45q0 -2 -3 -30l-9 -83h-552l8 57q5 41 37 69l242 213q137 118 137 212q0 33 -19 53.5t-53 20.5q-60 0 -99 -69q-19 -37 -60 -37
q-10 0 -32 3l-89 15q28 110 110 169t192 59t169 -54t59 -141t-48.5 -150t-138.5 -140l-155 -141q71 19 111 19zM1306 1480h100l-969 -1407q-51 -73 -133 -73h-100l960 1396q59 84 142 84z" />
    <glyph glyph-name="threequarters" unicode="&#xbe;" horiz-adv-x="1510" 
d="M1219 469q7 61 21 114l-238 -281h196zM545 1274q0 71 -72 71t-103 -64q-20 -39 -58 -39q-15 0 -38 4l-76 14q29 111 110 169.5t186 58.5t164.5 -52t59.5 -128q0 -139 -130 -186q102 -35 102 -138q0 -129 -91 -199t-208 -70q-166 0 -204.5 73.5t-50.5 130.5l81 32
q21 8 49 8t39 -29q27 -71 87 -71t90.5 32t30.5 77t-31 63t-110 18l15 121q87 1 122.5 25t35.5 79zM1393 167h-65l-20 -167h-148l21 167h-297q-47 0 -49 37l-8 87l405 466h169l-56 -455h97l-11 -102q-2 -12 -12 -22.5t-26 -10.5zM354 0h-100l960 1396q59 84 142 84h100
l-969 -1407q-51 -73 -133 -73z" />
    <glyph glyph-name="questiondown" unicode="&#xbf;" horiz-adv-x="798" 
d="M336 912q0 32 11.5 61t32 49.5t49.5 33t77 12.5t94 -44.5t46 -94.5q0 -49 -12 -77t-33 -48.5t-49.5 -32t-61 -11.5t-61.5 11.5t-49.5 32t-32 48.5t-11.5 60zM-20 -62q0 198 101.5 271t141 99.5t69.5 53.5t40 63l42 150h166v-167q0 -76 -59 -126.5t-100 -78.5t-100 -80.5
t-59 -147.5q0 -96 53 -117t93 -21t78 13.5t66 29.5t48 29t44 13t36 -28l52 -104q-184 -149 -383 -149q-151 0 -240 79t-89 218z" />
    <glyph glyph-name="Agrave" unicode="&#xc0;" horiz-adv-x="1313" 
d="M450 557h431l-101 507q-21 97 -31 170q-34 -90 -74 -171zM1061 0q-68 0 -81 60l-61 310h-552l-138 -310q-11 -24 -37 -42t-57 -18h-209l716 1481h271l354 -1481h-206zM681 1832q49 0 67 -14q17 -14 28 -25l157 -207h-207q-28 0 -42 9t-35 26l-239 211h271z" />
    <glyph glyph-name="Aacute" unicode="&#xc1;" horiz-adv-x="1313" 
d="M450 557h431l-101 507q-21 97 -31 170q-34 -90 -74 -171zM1061 0q-68 0 -81 60l-61 310h-552l-138 -310q-11 -24 -37 -42t-57 -18h-209l716 1481h271l354 -1481h-206zM845 1586h-198l209 207q34 34 60 37q25 2 46 2h269l-291 -211q-49 -35 -95 -35z" />
    <glyph glyph-name="Acircumflex" unicode="&#xc2;" horiz-adv-x="1313" 
d="M450 557h431l-101 507q-21 97 -31 170q-34 -90 -74 -171zM1061 0q-68 0 -81 60l-61 310h-552l-138 -310q-11 -24 -37 -42t-57 -18h-209l716 1481h271l354 -1481h-206zM950 1586q-30 0 -57 17l-81 71q-11 11 -14 15l-17 -15l-99 -71q-23 -17 -62 -17h-184l255 223h244
l201 -223h-186z" />
    <glyph glyph-name="Atilde" unicode="&#xc3;" horiz-adv-x="1313" 
d="M450 557h431l-101 507q-21 97 -31 170q-34 -90 -74 -171zM1061 0q-68 0 -81 60l-61 310h-552l-138 -310q-11 -24 -37 -42t-57 -18h-209l716 1481h271l354 -1481h-206zM696 1651q-54 0 -62 -70h-135q12 101 69 164t126 63t138 -36t93 -36q55 0 63 65h133
q-19 -156 -131 -209q-36 -16 -80 -16t-96 26t-75 37q-23 12 -43 12z" />
    <glyph glyph-name="Adieresis" unicode="&#xc4;" horiz-adv-x="1313" 
d="M450 557h431l-101 507q-21 97 -31 170q-34 -90 -74 -171zM1061 0q-68 0 -81 60l-61 310h-552l-138 -310q-11 -24 -37 -42t-57 -18h-209l716 1481h271l354 -1481h-206zM1007 1821q75 -33 75 -112q0 -80 -75 -114q-23 -10 -49 -10q-48 0 -86 36t-37 73q3 97 76 127
q21 10 47 10t49 -10zM475 1719q0 38 36 75t87 37q51 -1 88 -37t37 -74q0 -64 -38 -100q-38 -35 -75 -35q-38 0 -60 10q-75 34 -75 124z" />
    <glyph glyph-name="Aring" unicode="&#xc5;" horiz-adv-x="1313" 
d="M450 557h431l-101 507q-21 97 -31 170q-34 -90 -74 -171zM1061 0q-68 0 -81 60l-61 310h-552l-138 -310q-11 -24 -37 -42t-57 -18h-209l716 1481h271l354 -1481h-206zM697 1724q0 -42 24 -66q24 -26 67 -26t68 26t25 67t-25 66t-68 25t-67 -25t-24 -67zM786 1919
q140 0 198 -116q17 -35 17 -79q0 -84 -62 -139q-62 -54 -149 -54q-88 0 -151 55q-64 54 -64 138q0 83 62 139t149 56z" />
    <glyph glyph-name="AE" unicode="&#xc6;" horiz-adv-x="1752" 
d="M857 557v707q-38 -96 -76 -160l-300 -547h376zM1108 1269v-422h478l-25 -204h-453v-431h528l-26 -212h-753v370h-478l-169 -310q-13 -24 -40.5 -42t-59.5 -18h-207l858 1481h1031l-26 -212h-658z" />
    <glyph glyph-name="Ccedilla" unicode="&#xc7;" horiz-adv-x="1235" 
d="M837 -191q0 -77 -70.5 -121.5t-162.5 -44.5q-93 0 -159 24l34 76q9 21 23 21t20 -2.5t21.5 -8t42.5 -5.5q26 0 42 16t16 40t-30.5 37t-97.5 22l50 126q-231 28 -360.5 203t-129.5 431t103 452.5t283 309t400 112.5q289 0 444 -204l-93 -110q-26 -31 -53 -31q-28 0 -92 59
t-194 59q-241 0 -383.5 -170.5t-142.5 -449.5q0 -203 97 -322t249 -119q114 0 178.5 29t120.5 75.5t88 14.5l94 -116q-179 -204 -457 -225l-18 -46q137 -35 137 -132z" />
    <glyph glyph-name="Egrave" unicode="&#xc8;" horiz-adv-x="1076" 
d="M1117 1481l-26 -212h-596l-52 -421h468l-25 -204h-468l-53 -432h598l-27 -212h-864l182 1481h863zM595 1832q49 0 67 -14q17 -14 28 -25l157 -207h-207q-28 0 -42 9t-35 26l-239 211h271z" />
    <glyph glyph-name="Eacute" unicode="&#xc9;" horiz-adv-x="1076" 
d="M1117 1481l-26 -212h-596l-52 -421h468l-25 -204h-468l-53 -432h598l-27 -212h-864l182 1481h863zM735 1586h-197l208 207q34 34 60 37q26 2 46 2h269l-291 -211q-49 -35 -95 -35z" />
    <glyph glyph-name="Ecircumflex" unicode="&#xca;" horiz-adv-x="1076" 
d="M1117 1481l-26 -212h-596l-52 -421h468l-25 -204h-468l-53 -432h598l-27 -212h-864l182 1481h863zM864 1586q-30 0 -57 17l-81 71q-11 11 -14 15l-17 -15l-99 -71q-23 -17 -62 -17h-184l255 223h244l201 -223h-186z" />
    <glyph glyph-name="Edieresis" unicode="&#xcb;" horiz-adv-x="1076" 
d="M1117 1481l-26 -212h-596l-52 -421h468l-25 -204h-468l-53 -432h598l-27 -212h-864l182 1481h863zM921 1821q75 -33 75 -112q0 -80 -75 -114q-23 -10 -49 -10q-48 0 -86 36t-37 73q3 97 76 127q21 10 47 10t49 -10zM389 1719q0 38 36 75t87 37q51 -1 88 -37t37 -74
q0 -64 -38 -100q-38 -35 -75 -35q-38 0 -60 10q-75 34 -75 124z" />
    <glyph glyph-name="Igrave" unicode="&#xcc;" horiz-adv-x="593" 
d="M369 0h-268l182 1481h267zM325 1832q59 0 95 -39l157 -207h-207q-28 0 -43 9t-34 26l-240 211h272z" />
    <glyph glyph-name="Iacute" unicode="&#xcd;" horiz-adv-x="593" 
d="M369 0h-268l182 1481h267zM465 1586h-198l209 207q34 34 60 37q25 2 46 2h269l-291 -211q-49 -35 -95 -35z" />
    <glyph glyph-name="Icircumflex" unicode="&#xce;" horiz-adv-x="593" 
d="M369 0h-268l182 1481h267zM594 1586q-30 0 -57 17l-81 71l-15 15l-16 -15l-99 -71q-23 -17 -63 -17h-183l255 223h244l200 -223h-185z" />
    <glyph glyph-name="Idieresis" unicode="&#xcf;" horiz-adv-x="593" 
d="M369 0h-268l182 1481h267zM602 1831q51 0 87 -36q37 -36 37 -75q0 -92 -76 -125q-22 -10 -60 -10t-74 35t-37 74q0 38 10 61q33 76 113 76zM254 1831q38 0 75 -37q38 -37 38 -75q-1 -38 -11 -60t-27 -38t-40 -26t-48 -10t-47 10q-75 34 -75 111q0 26 10 49q33 76 125 76z
" />
    <glyph glyph-name="Eth" unicode="&#xd0;" horiz-adv-x="1489" 
d="M1197 812q0 224 -96.5 341t-266.5 117h-255l-56 -450h337l-17 -151h-338l-55 -457h255q224 0 323 123.5t134 239t35 237.5zM859 1481q278 0 444 -178.5t166 -462.5q0 -184 -59 -339t-164.5 -266t-250.5 -173t-316 -62h-522l81 669h-168l20 151h166l81 661h522z" />
    <glyph glyph-name="Ntilde" unicode="&#xd1;" horiz-adv-x="1425" 
d="M393 1481q46 -1 60 -15t22 -28l577 -1011q4 62 10 111l116 943h234l-183 -1481h-136q-65 0 -88 46l-574 1011q-4 -55 -8 -91l-117 -966h-234l182 1481h139zM746 1651q-54 0 -62 -70h-135q12 101 69 164t126 63t138 -36t93 -36q55 0 63 65h133q-19 -156 -131 -209
q-36 -16 -80 -16t-96 26t-75 37q-23 12 -43 12z" />
    <glyph glyph-name="Ograve" unicode="&#xd2;" horiz-adv-x="1499" 
d="M1208 812q0 334 -214 434q-69 32 -167 32t-189 -45q-92 -45 -156 -128q-134 -173 -134 -459q0 -201 96 -322q97 -120 271 -120q223 0 359 172q64 82 99 198t35 238zM1481 848q0 -375 -227 -621q-224 -243 -582 -243q-128 0 -241 50t-192 138q-163 182 -163 468
q0 366 226 611q226 246 570 246q277 0 446 -188q79 -89 121 -209t42 -252zM771 1832q49 0 67 -14q17 -14 28 -25l157 -207h-207q-28 0 -42 9t-35 26l-239 211h271z" />
    <glyph glyph-name="Oacute" unicode="&#xd3;" horiz-adv-x="1499" 
d="M1208 812q0 334 -214 434q-69 32 -167 32t-189 -45q-92 -45 -156 -128q-134 -173 -134 -459q0 -201 96 -322q97 -120 271 -120q223 0 359 172q64 82 99 198t35 238zM1481 848q0 -375 -227 -621q-224 -243 -582 -243q-128 0 -241 50t-192 138q-163 182 -163 468
q0 366 226 611q226 246 570 246q277 0 446 -188q79 -89 121 -209t42 -252zM911 1586h-197l209 207q34 34 60 37q25 2 45 2h269l-290 -211q-49 -35 -96 -35z" />
    <glyph glyph-name="Ocircumflex" unicode="&#xd4;" horiz-adv-x="1499" 
d="M1208 812q0 334 -214 434q-69 32 -167 32t-189 -45q-92 -45 -156 -128q-134 -173 -134 -459q0 -201 96 -322q97 -120 271 -120q223 0 359 172q64 82 99 198t35 238zM1481 848q0 -375 -227 -621q-224 -243 -582 -243q-128 0 -241 50t-192 138q-163 182 -163 468
q0 366 226 611q226 246 570 246q277 0 446 -188q79 -89 121 -209t42 -252zM1040 1586q-30 0 -57 17l-81 71q-11 11 -14 15l-17 -15l-99 -71q-23 -17 -62 -17h-184l255 223h244l201 -223h-186z" />
    <glyph glyph-name="Otilde" unicode="&#xd5;" horiz-adv-x="1499" 
d="M1208 812q0 334 -214 434q-69 32 -167 32t-189 -45q-92 -45 -156 -128q-134 -173 -134 -459q0 -201 96 -322q97 -120 271 -120q223 0 359 172q64 82 99 198t35 238zM1481 848q0 -375 -227 -621q-224 -243 -582 -243q-128 0 -241 50t-192 138q-163 182 -163 468
q0 366 226 611q226 246 570 246q277 0 446 -188q79 -89 121 -209t42 -252zM786 1651q-54 0 -62 -70h-135q12 101 69 164t126 63t138 -36t93 -36q55 0 63 65h133q-19 -156 -131 -209q-36 -16 -80 -16t-96 26t-75 37q-23 12 -43 12z" />
    <glyph glyph-name="Odieresis" unicode="&#xd6;" horiz-adv-x="1499" 
d="M1208 812q0 334 -214 434q-69 32 -167 32t-189 -45q-92 -45 -156 -128q-134 -173 -134 -459q0 -201 96 -322q97 -120 271 -120q223 0 359 172q64 82 99 198t35 238zM1481 848q0 -375 -227 -621q-224 -243 -582 -243q-128 0 -241 50t-192 138q-163 182 -163 468
q0 366 226 611q226 246 570 246q277 0 446 -188q79 -89 121 -209t42 -252zM1097 1821q75 -33 75 -112q0 -80 -75 -114q-23 -10 -49 -10q-48 0 -86 36t-37 73q3 97 76 127q22 10 48 10t48 -10zM776 1794q37 -36 37 -74q0 -64 -38 -100q-38 -35 -75 -35q-60 0 -97 35
q-38 35 -38 74q0 96 76 127q22 10 60 10q38 -1 75 -37z" />
    <glyph glyph-name="multiply" unicode="&#xd7;" 
d="M1120 1023l-377 -335l308 -350l-144 -128l-308 350l-395 -352l-113 128l395 352l-295 337l145 128l295 -337l376 335z" />
    <glyph glyph-name="Oslash" unicode="&#xd8;" horiz-adv-x="1499" 
d="M1173 575q35 117 35 257t-46 240l-644 -815q83 -53 196 -53t204 45t155.5 127t99.5 199zM348 646q0 -158 62 -270l654 827q-94 75 -214 75q-232 0 -367 -173.5t-135 -458.5zM1333 1289q148 -181 148 -435q0 -255 -103.5 -451t-284.5 -307.5t-383 -111.5t-343 82l-85 -108
q-58 -72 -155 -72h-104l221 280q-168 182 -168 474q0 370 227.5 613.5t568.5 243.5q197 0 345 -100l66 84q41 53 68.5 59t49.5 6h136z" />
    <glyph glyph-name="Ugrave" unicode="&#xd9;" horiz-adv-x="1370" 
d="M654 213q68 0 128 27q119 54 179 196q29 70 39 155l110 890h265l-108 -890q-33 -269 -207 -435q-178 -174 -425 -173t-380 141t-133 370q0 46 6 97l108 890h266l-110 -889q-4 -38 -4 -91t17 -109t50 -96t83 -62q48 -22 116 -21zM711 1831q59 0 95 -39l157 -207h-207
q-28 0 -43 9t-34 26l-240 211h272z" />
    <glyph glyph-name="Uacute" unicode="&#xda;" horiz-adv-x="1370" 
d="M654 213q68 0 128 27q119 54 179 196q29 70 39 155l110 890h265l-108 -890q-33 -269 -207 -435q-178 -174 -425 -173t-380 141t-133 370q0 46 6 97l108 890h266l-110 -889q-4 -38 -4 -91t17 -109t50 -96t83 -62q48 -22 116 -21zM851 1585h-198l209 207q34 34 60 37
q25 2 46 2h269l-291 -211q-49 -35 -95 -35z" />
    <glyph glyph-name="Ucircumflex" unicode="&#xdb;" horiz-adv-x="1370" 
d="M654 213q68 0 128 27q119 54 179 196q29 70 39 155l110 890h265l-108 -890q-33 -269 -207 -435q-178 -174 -425 -173t-380 141t-133 370q0 46 6 97l108 890h266l-110 -889q-4 -38 -4 -91t17 -109t50 -96t83 -62q48 -22 116 -21zM980 1585q-30 0 -57 17l-81 71l-15 15
l-16 -15l-99 -71q-23 -17 -63 -17h-183l255 223h244l200 -223h-185z" />
    <glyph glyph-name="Udieresis" unicode="&#xdc;" horiz-adv-x="1370" 
d="M654 213q68 0 128 27q119 54 179 196q29 70 39 155l110 890h265l-108 -890q-33 -269 -207 -435q-178 -174 -425 -173t-380 141t-133 370q0 46 6 97l108 890h266l-110 -889q-4 -38 -4 -91t17 -109t50 -96t83 -62q48 -22 116 -21zM1001 1830q38 0 74 -36q37 -36 37 -75
q0 -92 -76 -125q-22 -10 -48 -10q-47 0 -85 35t-38 74q0 38 10 61t27 40q17 16 39 26t60 10zM753 1718q-1 -38 -11 -60t-27 -38t-40 -26t-48 -10t-47 10q-75 34 -75 111q0 26 10 49q33 76 125 76q38 0 75 -37q38 -37 38 -75z" />
    <glyph glyph-name="Yacute" unicode="&#xdd;" horiz-adv-x="1241" 
d="M348 1481q57 0 82 -61l192 -512q27 -70 37 -141q30 64 78 141l319 512q35 59 94 61h220l-607 -904l-72 -577h-266l72 578l-385 903h236zM808 1584h-198l209 207q34 34 60 37q25 2 46 2h269l-291 -211q-49 -35 -95 -35z" />
    <glyph glyph-name="Thorn" unicode="&#xde;" horiz-adv-x="1182" 
d="M650 475q153 0 228.5 86t75.5 239t-88.5 185t-149.5 32h-186l-67 -542h187zM742 1223q239 0 359.5 -110t120.5 -295q0 -247 -155 -398t-443 -151h-187l-33 -269h-264l182 1481h266l-32 -258h186z" />
    <glyph glyph-name="germandbls" unicode="&#xdf;" horiz-adv-x="1185" 
d="M1057.5 1407q93.5 -98 93.5 -218q0 -161 -120.5 -240.5t-147 -110t-26.5 -62.5t20.5 -55t51 -44.5t118.5 -79.5t88 -207q0 -193 -123.5 -299.5t-295.5 -106.5t-292 129l69 93q25 34 56 34q32 0 50 -13.5t56.5 -43t84.5 -29.5q78 0 119.5 46.5t41.5 101.5t-22.5 84.5
t-57 53t-130.5 77.5t-96 179t59.5 183.5t100.5 87t100 79t59 143.5t-62 116t-116 23q-108 0 -188 -122.5t-99 -292.5l-106 -870l-52 -193q-29 -103 -130 -103h-102l136 1114l-94 17q-55 10 -55 52l11 108h170q60 196 209 331.5t338 135.5q190 0 283.5 -98z" />
    <glyph glyph-name="agrave" unicode="&#xe0;" horiz-adv-x="1059" 
d="M292 397q0 -104 35 -155t86 -51q133 0 234 228q31 69 53 147l40 318q-28 3 -51 3q-170 0 -283 -143q-114 -143 -114 -347zM39 359q0 280 195 495q123 134 303 186q89 26 173 26q175 0 296 -47l-127 -1019h-134q-82 0 -82 76l8 143q-150 -234 -348 -234q-125 0 -205 97
q-79 97 -79 277zM654 1496q38 0 56 -13t29 -40l103 -249h-140q-51 0 -74 35l-203 267h229z" />
    <glyph glyph-name="aacute" unicode="&#xe1;" horiz-adv-x="1059" 
d="M292 397q0 -104 35 -155t86 -51q133 0 234 228q31 69 53 147l40 318q-28 3 -51 3q-170 0 -283 -143q-114 -143 -114 -347zM39 359q0 280 195 495q123 134 303 186q89 26 173 26q175 0 296 -47l-127 -1019h-134q-82 0 -82 76l8 143q-150 -234 -348 -234q-125 0 -205 97
q-79 97 -79 277zM712 1194h-146l164 249q33 53 98 53h237l-268 -267q-35 -35 -85 -35z" />
    <glyph glyph-name="acircumflex" unicode="&#xe2;" horiz-adv-x="1059" 
d="M292 397q0 -104 35 -155t86 -51q133 0 234 228q31 69 53 147l40 318q-28 3 -51 3q-170 0 -283 -143q-114 -143 -114 -347zM39 359q0 280 195 495q123 134 303 186q89 26 173 26q175 0 296 -47l-127 -1019h-134q-82 0 -82 76l8 143q-150 -234 -348 -234q-125 0 -205 97
q-79 97 -79 277zM858 1196q-29 0 -47 18l-83 102q-8 8 -17 20q-8 -8 -23 -20l-110 -102q-21 -18 -52 -18h-169l252 284h230l181 -284h-162z" />
    <glyph glyph-name="atilde" unicode="&#xe3;" horiz-adv-x="1059" 
d="M292 397q0 -104 35 -155t86 -51q133 0 234 228q31 69 53 147l40 318q-28 3 -51 3q-170 0 -283 -143q-114 -143 -114 -347zM39 359q0 280 195 495q123 134 303 186q89 26 173 26q175 0 296 -47l-127 -1019h-134q-82 0 -82 76l8 143q-150 -234 -348 -234q-125 0 -205 97
q-79 97 -79 277zM618 1473q48 1 93 -29q46 -30 66 -43t38 -13q55 0 69 78h147q-14 -115 -79 -182t-149 -65q-51 0 -95 29t-63 42q-20 13 -39 14q-57 0 -66 -80h-150q14 113 79 181t149 68z" />
    <glyph glyph-name="adieresis" unicode="&#xe4;" horiz-adv-x="1059" 
d="M292 397q0 -104 35 -155t86 -51q133 0 234 228q31 69 53 147l40 318q-28 3 -51 3q-170 0 -283 -143q-114 -143 -114 -347zM39 359q0 280 195 495q123 134 303 186q89 26 173 26q175 0 296 -47l-127 -1019h-134q-82 0 -82 76l8 143q-150 -234 -348 -234q-125 0 -205 97
q-79 97 -79 277zM1040 1362q0 -106 -86 -143q-26 -11 -56 -11t-54 11q-86 37 -86 127q0 58 30 89q52 54 112 54q59 1 100 -41q40 -42 40 -86zM658 1362q0 -106 -88 -143q-26 -11 -55 -11t-54 11q-85 37 -85 127q0 58 30 89q52 54 110 54t100 -41t42 -86z" />
    <glyph glyph-name="aring" unicode="&#xe5;" horiz-adv-x="1059" 
d="M292 397q0 -104 35 -155t86 -51q133 0 234 228q31 69 53 147l40 318q-28 3 -51 3q-170 0 -283 -143q-114 -143 -114 -347zM39 359q0 280 195 495q123 134 303 186q89 26 173 26q175 0 296 -47l-127 -1019h-134q-82 0 -82 76l8 143q-150 -234 -348 -234q-125 0 -205 97
q-79 97 -79 277zM637 1359q0 -41 24 -67t67 -26t68 26q24 26 24 67t-24 66q-25 25 -68 25t-67 -25t-24 -66zM500 1359q0 92 65 150q65 57 161 58q95 1 163 -59t68 -150t-68 -148q-68 -59 -162 -59t-160 58q-67 58 -67 150z" />
    <glyph glyph-name="ae" unicode="&#xe6;" horiz-adv-x="1495" 
d="M1118 890q-106 0 -170.5 -74t-87.5 -205q308 24 341 83.5t33 97.5t-29.5 68t-86.5 30zM251 267q0 -116 116 -116q148 0 192 101t53 173l5 47q-294 -14 -330 -89t-36 -116zM1146 1066q131 0 219.5 -79t88.5 -178t-52.5 -169.5t-187.5 -118.5t-365 -54q0 -287 210 -287
q102 0 161 39.5t84 57.5t55 18t45 -23l64 -77q-116 -116 -217.5 -163t-220.5 -47q-239 0 -332 204q-133 -205 -379 -205q-152 0 -228 65t-76 188q0 250 221.5 314.5t400.5 70.5q8 74 8 96q0 156 -133 156q-81 0 -137 -32t-81 -47t-52 -15q-49 0 -68 44l-34 79
q186 166 394 166t270 -160q134 157 342 157z" />
    <glyph glyph-name="ccedilla" unicode="&#xe7;" horiz-adv-x="891" 
d="M623 -191q0 -77 -70.5 -121.5t-162.5 -44.5q-93 0 -159 24l34 76q9 21 23 21t20 -2.5t21.5 -8t42.5 -5.5q26 0 42 16t16 40t-30.5 37t-97.5 22l51 130q-142 26 -222 140.5t-80 265.5q0 285 158.5 476t393.5 191q193 0 308 -147l-81 -97q-19 -24 -42 -24q-22 0 -36.5 10.5
t-49.5 33.5t-98 23q-127 0 -213.5 -124.5t-86.5 -318.5q0 -116 52 -179t124 -63t110.5 17t65 37t47.5 37t47 17t44 -24l64 -78q-87 -97 -169.5 -143.5t-183.5 -54.5l-19 -47q137 -35 137 -132z" />
    <glyph glyph-name="egrave" unicode="&#xe8;" horiz-adv-x="968" 
d="M712 799q0 33 -30 61q-30 29 -84 29q-155 0 -239 -171q-26 -53 -42 -115q237 32 325 83q70 42 70 113zM940 794q0 -137 -129 -221q-150 -94 -514 -132v-13q0 -248 210 -248q112 0 188 58q80 57 109 57t48 -23l64 -77q-116 -116 -216 -163q-101 -47 -218 -47
q-307 0 -403 256q-29 79 -29 171q0 267 157 460t402 193q83 0 145 -24q186 -71 186 -247zM537 1496q39 0 56 -13t29 -40l102 -249h-139q-52 0 -75 35l-203 267h230z" />
    <glyph glyph-name="eacute" unicode="&#xe9;" horiz-adv-x="968" 
d="M712 799q0 33 -30 61q-30 29 -84 29q-155 0 -239 -171q-26 -53 -42 -115q237 32 325 83q70 42 70 113zM940 794q0 -137 -129 -221q-150 -94 -514 -132v-13q0 -248 210 -248q112 0 188 58q80 57 109 57t48 -23l64 -77q-116 -116 -216 -163q-101 -47 -218 -47
q-307 0 -403 256q-29 79 -29 171q0 267 157 460t402 193q83 0 145 -24q186 -71 186 -247zM631 1194h-146l164 249q33 53 99 53h236l-268 -267q-35 -35 -85 -35z" />
    <glyph glyph-name="ecircumflex" unicode="&#xea;" horiz-adv-x="968" 
d="M712 799q0 33 -30 61q-30 29 -84 29q-155 0 -239 -171q-26 -53 -42 -115q237 32 325 83q70 42 70 113zM940 794q0 -137 -129 -221q-150 -94 -514 -132v-13q0 -248 210 -248q112 0 188 58q80 57 109 57t48 -23l64 -77q-116 -116 -216 -163q-101 -47 -218 -47
q-307 0 -403 256q-29 79 -29 171q0 267 157 460t402 193q83 0 145 -24q186 -71 186 -247zM781 1196q-26 0 -47 18l-83 102q-8 8 -17 20q-8 -8 -23 -20l-110 -102q-21 -18 -51 -18h-169l251 284h230l181 -284h-162z" />
    <glyph glyph-name="edieresis" unicode="&#xeb;" horiz-adv-x="968" 
d="M712 799q0 33 -30 61q-30 29 -84 29q-155 0 -239 -171q-26 -53 -42 -115q237 32 325 83q70 42 70 113zM940 794q0 -137 -129 -221q-150 -94 -514 -132v-13q0 -248 210 -248q112 0 188 58q80 57 109 57t48 -23l64 -77q-116 -116 -216 -163q-101 -47 -218 -47
q-307 0 -403 256q-29 79 -29 171q0 267 157 460t402 193q83 0 145 -24q186 -71 186 -247zM964 1361q0 -105 -87 -142q-25 -11 -55 -11t-56 11q-86 37 -85 127q0 58 30 89q52 54 112 54q59 0 100 -42t41 -86zM582 1362q0 -105 -89 -143q-26 -11 -67 -11t-84 39t-43 98t30 90
q52 54 110 54q59 0 101 -41t42 -86z" />
    <glyph glyph-name="igrave" unicode="&#xec;" horiz-adv-x="527" 
d="M452 1051l-126 -1051h-250l126 1051h250zM263 1496q39 0 56 -13t29 -40l103 -249h-140q-51 0 -74 35l-203 267h229z" />
    <glyph glyph-name="iacute" unicode="&#xed;" horiz-adv-x="527" 
d="M452 1051l-126 -1051h-250l126 1051h250zM356 1194h-145l164 249q17 27 38 40t60 13h237l-269 -267q-35 -35 -85 -35z" />
    <glyph glyph-name="icircumflex" unicode="&#xee;" horiz-adv-x="527" 
d="M452 1051l-126 -1051h-250l126 1051h250zM507 1196q-29 0 -47 18l-83 102q-8 8 -18 20q-12 -12 -22 -20l-111 -102q-21 -18 -51 -18h-169l252 284h229l182 -284h-162z" />
    <glyph glyph-name="idieresis" unicode="&#xef;" horiz-adv-x="527" 
d="M452 1051l-126 -1051h-250l126 1051h250zM689 1362q0 -106 -86 -143q-25 -11 -55 -11t-56 11q-86 37 -85 127q0 58 30 89q52 54 112 54q59 1 100 -41q40 -42 40 -86zM307 1362q0 -106 -88 -143q-26 -11 -55 -11t-54 11q-85 37 -85 127q0 58 30 89q52 54 110 54t100 -41
t42 -86z" />
    <glyph glyph-name="eth" unicode="&#xf0;" horiz-adv-x="1070" 
d="M790 579q-50 189 -227 189q-119 0 -194 -97t-75 -231q0 -133 53.5 -201t144.5 -68q108 0 187 95.5t111 312.5zM433 1116q0 20 22 32l118 77q-69 36 -154 61q-50 16 -50 54q0 20 12 45l37 78q201 -36 344 -138l188 117l41 -80q7 -14 7 -33t-25 -36l-105 -66
q163 -184 163 -484q0 -350 -150.5 -554t-422.5 -204q-183 0 -295 117.5t-112 325.5t142 366.5t343 158.5t301 -154q-10 220 -139 342l-212 -136l-46 80q-7 11 -7 31z" />
    <glyph glyph-name="ntilde" unicode="&#xf1;" horiz-adv-x="1102" 
d="M768 732q0 128 -101 128q-87 0 -175 -96q-87 -96 -128 -248l-58 -516h-253l126 1052h129q84 0 84 -82l-7 -136q158 233 378 233q119 0 188 -82q68 -82 70 -235q0 -20 -2 -40t-3 -41l-79 -669h-253q84 727 84 732zM581 1475q49 1 94 -29q44 -30 64 -43t38 -13q55 0 69 78
h147q-21 -171 -147 -229q-38 -18 -76 -18t-67 13q-28 13 -52 29t-44 29t-39 14q-57 0 -66 -80h-150q14 113 79 181t150 68z" />
    <glyph glyph-name="ograve" unicode="&#xf2;" horiz-adv-x="1044" 
d="M462 -15q-296 0 -387 253q-31 82 -31 202t44 239q89 240 294 339q100 49 200 49q293 0 389 -253q31 -82 31 -202t-45 -238q-44 -118 -119 -204q-75 -87 -175 -136q-101 -49 -201 -49zM297 427q0 -248 174 -248q123 0 199 130t79 316q0 248 -176 248q-124 0 -200 -130
t-76 -316zM525 1498q39 0 57 -13t28 -40l103 -249h-140q-51 0 -74 35l-203 267h229z" />
    <glyph glyph-name="oacute" unicode="&#xf3;" horiz-adv-x="1044" 
d="M462 -15q-296 0 -387 253q-31 82 -31 202t44 239q89 240 294 339q100 49 200 49q293 0 389 -253q31 -82 31 -202t-45 -238q-44 -118 -119 -204q-75 -87 -175 -136q-101 -49 -201 -49zM297 427q0 -248 174 -248q123 0 199 130t79 316q0 248 -176 248q-124 0 -200 -130
t-76 -316zM620 1196h-146l164 249q17 27 38 40t60 13h237l-268 -267q-35 -35 -85 -35z" />
    <glyph glyph-name="ocircumflex" unicode="&#xf4;" horiz-adv-x="1044" 
d="M462 -15q-296 0 -387 253q-31 82 -31 202t44 239q89 240 294 339q100 49 200 49q293 0 389 -253q31 -82 31 -202t-45 -238q-44 -118 -119 -204q-75 -87 -175 -136q-101 -49 -201 -49zM297 427q0 -248 174 -248q123 0 199 130t79 316q0 248 -176 248q-124 0 -200 -130
t-76 -316zM770 1198q-31 0 -47 19l-83 101q-8 8 -17 20q-8 -8 -23 -20l-111 -101q-22 -19 -51 -19h-169l252 284h230l181 -284h-162z" />
    <glyph glyph-name="otilde" unicode="&#xf5;" horiz-adv-x="1044" 
d="M462 -15q-296 0 -387 253q-31 82 -31 202t44 239q89 240 294 339q100 49 200 49q293 0 389 -253q31 -82 31 -202t-45 -238q-44 -118 -119 -204q-75 -87 -175 -136q-101 -49 -201 -49zM297 427q0 -248 174 -248q123 0 199 130t79 316q0 248 -176 248q-124 0 -200 -130
t-76 -316zM530 1475q48 1 93 -29q46 -30 66 -43t38 -13q55 0 69 78h147q-14 -111 -78 -179t-150 -68q-51 0 -95 29t-63 42q-20 13 -39 14q-57 0 -66 -80h-150q14 113 79 181t149 68z" />
    <glyph glyph-name="odieresis" unicode="&#xf6;" horiz-adv-x="1044" 
d="M462 -15q-296 0 -387 253q-31 82 -31 202t44 239q89 240 294 339q100 49 200 49q293 0 389 -253q31 -82 31 -202t-45 -238q-44 -118 -119 -204q-75 -87 -175 -136q-101 -49 -201 -49zM297 427q0 -248 174 -248q123 0 199 130t79 316q0 248 -176 248q-124 0 -200 -130
t-76 -316zM952 1364q0 -106 -86 -143q-26 -11 -56 -11t-54 11q-86 37 -86 127q0 58 30 89q52 54 112 54q59 1 100 -41q40 -42 40 -86zM570 1364q0 -106 -88 -143q-26 -11 -55 -11t-54 11q-85 37 -85 127q0 58 30 89q52 54 110 54t100 -41t42 -86z" />
    <glyph glyph-name="divide" unicode="&#xf7;" 
d="M723 334q0 -67 -52 -114.5t-115 -47.5t-100.5 37.5t-37.5 101.5t51 113.5t129 49.5q79 0 102 -54t23 -86zM813 1064q0 -67 -52 -115t-115 -48t-100.5 37.5t-37.5 100.5t49.5 113.5t130.5 50.5t103 -53.5t22 -85.5zM129 778h997l-22 -181h-998z" />
    <glyph glyph-name="oslash" unicode="&#xf8;" horiz-adv-x="1044" 
d="M474 163q124 0 207 130t83 332q0 48 -8 90l-382 -525q40 -27 100 -27zM281 454q0 -76 8 -120l382 526q-43 29 -102 29t-113 -34t-92.5 -95t-60.5 -145.5t-22 -160.5zM1001 645q0 -287 -162 -473.5t-390 -186.5q-120 0 -210 52l-11 -13q-54 -74 -151 -74h-93l140 191
q-80 111 -80 265q0 292 162 476.5t390 184.5q119 0 211 -53l13 18q40 56 66 62t49 6h125l-139 -191q80 -111 80 -264z" />
    <glyph glyph-name="ugrave" unicode="&#xf9;" horiz-adv-x="1100" 
d="M795 0q-61 0 -83 42q-8 14 -7 34v4l6 128q-158 -223 -371 -223q-119 0 -189 83q-69 83 -69 232q0 46 5 84l79 667h253l-84 -720q-1 -8 0 -14q-1 -123 95 -125q85 -1 171 84q85 89 130 230l66 545h253l-127 -1051h-128zM543 1498q39 0 56 -13t29 -40l102 -249h-139
q-52 0 -75 35l-203 267h230z" />
    <glyph glyph-name="uacute" unicode="&#xfa;" horiz-adv-x="1100" 
d="M795 0q-61 0 -83 42q-8 14 -7 34v4l6 128q-158 -223 -371 -223q-119 0 -189 83q-69 83 -69 232q0 46 5 84l79 667h253l-84 -720q-1 -8 0 -14q-1 -123 95 -125q85 -1 171 84q85 89 130 230l66 545h253l-127 -1051h-128zM637 1196h-145l163 249q33 53 99 53h236l-268 -267
q-35 -35 -85 -35z" />
    <glyph glyph-name="ucircumflex" unicode="&#xfb;" horiz-adv-x="1100" 
d="M795 0q-61 0 -83 42q-8 14 -7 34v4l6 128q-158 -223 -371 -223q-119 0 -189 83q-69 83 -69 232q0 46 5 84l79 667h253l-84 -720q-1 -8 0 -14q-1 -123 95 -125q85 -1 171 84q85 89 130 230l66 545h253l-127 -1051h-128zM787 1198q-28 0 -47 19l-83 101q-8 8 -17 20
q-8 -8 -23 -20l-110 -101q-22 -19 -51 -19h-169l252 284h229l181 -284h-162z" />
    <glyph glyph-name="udieresis" unicode="&#xfc;" horiz-adv-x="1100" 
d="M795 0q-61 0 -83 42q-8 14 -7 34v4l6 128q-158 -223 -371 -223q-119 0 -189 83q-69 83 -69 232q0 46 5 84l79 667h253l-84 -720q-1 -8 0 -14q-1 -123 95 -125q85 -1 171 84q85 89 130 230l66 545h253l-127 -1051h-128zM970 1363q0 -105 -87 -142q-26 -11 -70 -11t-85 40
t-41 84q0 105 86 146q26 11 71 11t85 -42q41 -42 41 -86zM588 1364q0 -105 -89 -143q-26 -11 -55 -11q-30 0 -54 11q-86 38 -85 128q0 90 86 131q25 11 69 11t86 -41t42 -86z" />
    <glyph glyph-name="yacute" unicode="&#xfd;" horiz-adv-x="1017" 
d="M298 -343h-187l233 423l-265 971h212q48 0 60 -47l129 -545q12 -55 16 -105q11 27 23 53t24 53l259 545q23 46 69 46h203l-694 -1342q-27 -52 -82 -52zM606 1196h-145l164 249q17 27 38 40t60 13h236l-268 -267q-35 -35 -85 -35z" />
    <glyph glyph-name="thorn" unicode="&#xfe;" horiz-adv-x="1094" 
d="M807 650q0 218 -137 218q-80 0 -166 -105t-134 -260l-32 -258q64 -68 169 -68q129 0 214.5 146t85.5 327zM412 844q160 223 363 223q202 0 242.5 -146t40.5 -240t-18.5 -180t-71 -204.5t-170.5 -215t-254 -96.5t-227 95l-41 -339q-4 -33 -30.5 -58.5t-69.5 -25.5h-157
l228 1865h249z" />
    <glyph glyph-name="ydieresis" unicode="&#xff;" horiz-adv-x="1017" 
d="M298 -343h-187l233 423l-265 971h212q48 0 60 -47l129 -545q12 -55 16 -105q11 27 23 53t24 53l259 545q23 46 69 46h203l-694 -1342q-27 -52 -82 -52zM939 1364q0 -107 -87 -143q-26 -11 -70 -11t-84 39t-41 84q-2 105 85 147q26 11 70 11q44 1 86 -41t41 -86zM557 1364
q0 -107 -89 -143q-26 -11 -54 -11t-54 11q-83 36 -86 127q0 57 30 88q53 55 110 55t100 -41t43 -86z" />
    <glyph glyph-name="Aogonek" unicode="&#x104;" horiz-adv-x="1313" 
d="M450 557h431l-101 507q-6 33 -15 76t-16 94q-30 -79 -74 -171zM929 -219q0 123 158 219h-26q-70 0 -81 60l-61 310h-552l-138 -310q-11 -24 -36.5 -42t-57.5 -18h-209l716 1481h271l354 -1481h-34q-74 -37 -95 -82t-21 -71t15 -42t37 -16t33 2.5t19 5.5t12.5 5.5t9.5 2.5
q18 0 22 -16l24 -90q-75 -52 -172 -52q-98 0 -143 37.5t-45 96.5z" />
    <glyph glyph-name="aogonek" unicode="&#x105;" horiz-adv-x="1068" 
d="M413 191q91 0 166.5 107.5t120.5 267.5l40 318q-28 3 -51 3q-167 0 -282 -142t-115 -341q0 -111 35 -162t86 -51zM39 411q0 233 160 405t293.5 211t217.5 39q175 0 296 -47l-127 -1019h-24q-74 -37 -95 -82t-21 -71t15 -42t37 -16t33.5 2.5t19 5.5t12 5.5t9.5 2.5
q18 0 22 -16l24 -90q-75 -52 -172 -52q-98 0 -143 37.5t-45 96.5q0 128 164 222q-52 14 -52 81l8 135q-150 -234 -348 -234q-124 0 -204 96.5t-80 329.5z" />
    <glyph glyph-name="Cacute" unicode="&#x106;" horiz-adv-x="1259" 
d="M649 -16q-263 0 -418 179t-155 447q0 269 103 466t285 309q181 112 398 112q292 0 444 -204l-93 -110q-26 -31 -53 -31q-28 0 -48 18q-109 98 -251 99q-227 2 -369 -168t-144 -451q0 -203 96 -322t250 -119q111 0 167 25q76 34 122 71q45 38 64 38t34 -15l94 -116
q-199 -230 -526 -228zM899 1586h-198l209 207q34 34 60 37q26 2 46 2h269l-291 -211q-49 -35 -95 -35z" />
    <glyph glyph-name="cacute" unicode="&#x107;" horiz-adv-x="891" 
d="M51 438q0 114 41 229q85 240 290 346q101 53 213 53q111 0 185 -37t131 -110l-81 -97q-41 -42 -78 -14q-78 58 -145 58q-132 -2 -217 -127q-86 -125 -86 -317q0 -116 51 -179t124 -63t111 17t65 37t48 37t45 17t46 -24l64 -78q-150 -165 -300 -192q-265 -49 -404 110
q-103 118 -103 334zM603 1196h-145l164 249q17 27 38 40t60 13h236l-268 -267q-35 -35 -85 -35z" />
    <glyph glyph-name="Eogonek" unicode="&#x118;" horiz-adv-x="1076" 
d="M717 -152q0 -59 56 -59q33 0 49 8t21 8q18 0 21 -16l25 -90q-75 -52 -172 -52q-98 0 -143.5 37.5t-45.5 96.5q0 124 159 219h-615l182 1481h863l-26 -212h-596l-52 -421h468l-25 -204h-468l-53 -432h598l-27 -212h-103q-77 -38 -96.5 -82.5t-19.5 -69.5z" />
    <glyph glyph-name="eogonek" unicode="&#x119;" horiz-adv-x="968" 
d="M422.5 811.5q-72.5 -77.5 -105.5 -208.5q335 45 365 104t30 83t-7 40t-30 37.5t-102 21.5q-78 0 -150.5 -77.5zM290 -219q0 116 136 205q-171 10 -273.5 127t-102.5 308q0 258 156.5 451t402.5 193q155 0 243 -79.5t88 -164.5t-58 -205t-585 -175v-13q0 -248 210 -248
q110 0 174 47.5t84.5 57.5t44.5 10t42 -23l64 -77q-166 -166 -328 -198q-73 -40 -91.5 -82t-18.5 -68t15 -42t37 -16t33 2.5t19 5.5t12.5 5.5t9.5 2.5q18 0 22 -16l24 -90q-75 -52 -172 -52q-98 0 -143 37.5t-45 96.5z" />
    <glyph glyph-name="dotlessi" unicode="&#x131;" horiz-adv-x="527" 
d="M452 1051l-126 -1051h-250l126 1051h250z" />
    <glyph glyph-name="Lslash" unicode="&#x141;" horiz-adv-x="1040" 
d="M512 893l343 175l-22 -178q-4 -35 -39 -53l-310 -165l-55 -452h539l-26 -220h-805l67 546l-193 -94l24 181q4 34 35 49l160 82l89 717h266z" />
    <glyph glyph-name="lslash" unicode="&#x142;" horiz-adv-x="649" 
d="M74 755q0 36 30 49l137 57l80 661h248l-69 -569l160 66v-146q0 -40 -34 -55l-150 -64l-91 -754h-249l80 663l-142 -58v150z" />
    <glyph glyph-name="Nacute" unicode="&#x143;" horiz-adv-x="1425" 
d="M393 1481q46 -1 60 -15t22 -28l577 -1011q4 62 10 111l116 943h234l-183 -1481h-136q-65 0 -88 46l-574 1011q-4 -55 -8 -91l-117 -966h-234l182 1481h139zM871 1586h-197l209 207q34 34 60 37q25 2 45 2h269l-290 -211q-49 -35 -96 -35z" />
    <glyph glyph-name="nacute" unicode="&#x144;" horiz-adv-x="1102" 
d="M768 732q0 128 -101 128q-87 0 -175 -96q-87 -96 -128 -248l-58 -516h-253l126 1052h129q84 0 84 -82l-7 -136q158 233 378 233q119 0 188 -82q68 -82 70 -235q0 -20 -2 -40t-3 -41l-79 -669h-253q84 727 84 732zM670 1196h-146l164 249q33 53 98 53h237l-268 -267
q-35 -35 -85 -35z" />
    <glyph glyph-name="OE" unicode="&#x152;" horiz-adv-x="2027" 
d="M1121 821q0 223 -83.5 344t-234.5 121q-205 0 -330 -179.5t-125 -470.5q0 -199 83.5 -319.5t237.5 -120.5q204 0 296 132.5t124 252t32 240.5zM1076 177q-188 -192 -447 -192t-406 181.5t-147 444.5t93.5 460.5t259.5 311.5t372 114q268 0 410 -220l26 204h831l-26 -212
h-595l-52 -422h467l-25 -204h-467l-52 -431h594l-26 -212h-831z" />
    <glyph glyph-name="oe" unicode="&#x153;" horiz-adv-x="1594" 
d="M1356 794q0 39 -32 68t-118 29t-158.5 -76t-97.5 -219q406 52 406 198zM743 660q0 218 -159 218q-138 0 -217.5 -136t-79.5 -361q0 -94 39.5 -151.5t135.5 -57.5t188.5 108t92.5 380zM1567 803q0 -145 -136 -235t-491 -126q3 -135 58.5 -198.5t137.5 -63.5t126.5 18
t75.5 39.5t55.5 39.5t54.5 18t47 -23l65 -77q-115 -115 -218 -162.5t-221 -47.5q-236 0 -327 198q-156 -198 -405 -198q-163 0 -255.5 110.5t-92.5 276.5q0 323 165 508.5t400 185.5q199 0 288 -163q142 163 366 163q140 0 223.5 -73.5t83.5 -189.5z" />
    <glyph glyph-name="Sacute" unicode="&#x15a;" horiz-adv-x="1012" 
d="M649 1280q-183 0 -232 -129q-15 -39 -15 -85t24 -77q46 -59 165 -102t180 -75q187 -101 187 -298q0 -225 -148 -377q-148 -153 -391 -153q-194 0 -347 114q-47 36 -82 80l94 127q26 33 52 33q27 0 49 -13t57 -43t64 -45q68 -35 166 -35t164 66t64 184q0 119 -174 175
q-142 49 -196 77q-182 94 -180 300q1 206 142 349t365 143q179 0 309 -101q40 -31 70 -69l-79 -112q-46 -66 -105 -23q-22 16 -51 36q-80 53 -152 53zM717 1586h-198l209 207q34 34 60 37q25 2 46 2h269l-291 -211q-49 -35 -95 -35z" />
    <glyph glyph-name="sacute" unicode="&#x15b;" horiz-adv-x="803" 
d="M327 774q0 -44 18 -65q19 -22 47 -38t65 -30q96 -36 151 -66q130 -70 130 -222t-118 -260q-118 -109 -318 -109q-199 0 -310 129l61 96q23 36 55 36q32 1 49 -13q89 -71 177 -72q127 0 168 87q11 25 11 57q0 79 -130 125q-103 36 -145 57q-133 65 -134 215
q-1 149 109 257t296 109q187 0 307 -122l-65 -92q-21 -30 -43 -30q-23 1 -41 11t-61 33t-118 23t-118 -36t-43 -80zM531 1196h-145l164 249q17 27 38 40t60 13h237l-269 -267q-35 -35 -85 -35z" />
    <glyph glyph-name="Scaron" unicode="&#x160;" horiz-adv-x="1012" 
d="M649 1280q-183 0 -232 -129q-15 -39 -15 -85t24 -77q46 -59 165 -102t180 -75q187 -101 187 -298q0 -225 -148 -377q-148 -153 -391 -153q-194 0 -347 114q-47 36 -82 80l94 127q26 33 52 33q27 0 49 -13t57 -43t64 -45q68 -35 166 -35t164 66t64 184q0 119 -174 175
q-142 49 -196 77q-182 94 -180 300q1 206 142 349t365 143q179 0 309 -101q40 -31 70 -69l-79 -112q-46 -66 -105 -23q-22 16 -51 36q-80 53 -152 53zM351 1809h222l116 -100l140 100h223l-256 -223h-244z" />
    <glyph glyph-name="scaron" unicode="&#x161;" horiz-adv-x="803" 
d="M327 774q0 -44 18 -65q19 -22 47 -38t65 -30q96 -36 151 -66q130 -70 130 -222t-118 -260q-118 -109 -318 -109q-199 0 -310 129l61 96q23 36 55 36q32 1 49 -13q89 -71 177 -72q127 0 168 87q11 25 11 57q0 79 -130 125q-103 36 -145 57q-133 65 -134 215
q-1 149 109 257t296 109q187 0 307 -122l-65 -92q-21 -30 -43 -30q-23 1 -41 11t-61 33t-118 23t-118 -36t-43 -80zM385 1482q30 0 46 -19l84 -102q8 -10 17 -24q6 7 13 13t12 11l109 102q17 19 51 19h162l-252 -284h-229l-181 284h168z" />
    <glyph glyph-name="Ydieresis" unicode="&#x178;" horiz-adv-x="1241" 
d="M348 1481q57 0 82 -61l192 -512q27 -70 37 -141q30 64 78 141l319 512q35 59 94 61h220l-607 -904l-72 -577h-266l72 578l-385 903h236zM958 1829q38 0 74 -36q37 -36 37 -75q0 -92 -76 -125q-23 -10 -49 -10q-47 0 -84 35q-38 35 -38 74q0 38 10 61t27 40t39 27t60 9z
M597 1829q38 0 75 -37q38 -37 38 -75t-10 -60t-28 -38q-17 -16 -40 -26t-48 -10t-47 10q-75 34 -75 111q0 26 10 49q33 76 125 76z" />
    <glyph glyph-name="Zacute" unicode="&#x179;" horiz-adv-x="1160" 
d="M1233 1481l-11 -83q-3 -25 -30 -64l-818 -1122h686l-27 -212h-1040l10 81q4 31 29 63l820 1125h-657l25 212h1013zM774 1585h-197l208 207q34 34 60 37q26 2 46 2h269l-291 -211q-49 -35 -95 -35z" />
    <glyph glyph-name="zacute" unicode="&#x17a;" horiz-adv-x="897" 
d="M890 946q-7 -60 -41 -94l-525 -657h461l-22 -195h-764l13 105q5 44 41 88l530 664h-452l24 194h748zM558 1196h-145l164 249q17 27 38 40t60 13h236l-268 -267q-35 -35 -85 -35z" />
    <glyph glyph-name="Zdotaccent" unicode="&#x17b;" horiz-adv-x="1160" 
d="M1233 1481l-11 -83q-3 -25 -30 -64l-818 -1122h686l-27 -212h-1040l10 81q4 31 29 63l820 1125h-657l25 212h1013zM856 1630q-48 -46 -111 -46q-62 0 -107 46q-44 46 -44 92q0 78 45 123t91 45q80 0 127 -45q46 -45 46 -106q0 -62 -47 -109z" />
    <glyph glyph-name="zdotaccent" unicode="&#x17c;" horiz-adv-x="897" 
d="M890 946q-7 -60 -41 -94l-525 -657h461l-22 -195h-764l13 105q5 44 41 88l530 664h-452l24 194h748zM730 1364q0 -67 -49 -114t-115 -47t-114 48t-47 113q1 66 49 114t96 47q84 0 132 -47t48 -114z" />
    <glyph glyph-name="Zcaron" unicode="&#x17d;" horiz-adv-x="1160" 
d="M1233 1481l-11 -83q-3 -25 -30 -64l-818 -1122h686l-27 -212h-1040l10 81q4 31 29 63l820 1125h-657l25 212h1013zM420 1808h222l116 -100l140 100h222l-256 -223h-243z" />
    <glyph glyph-name="zcaron" unicode="&#x17e;" horiz-adv-x="897" 
d="M890 946q-7 -60 -41 -94l-525 -657h461l-22 -195h-764l13 105q5 44 41 88l530 664h-452l24 194h748zM412 1482q30 0 46 -19l84 -102q8 -10 17 -24q6 7 13 13t12 11l108 102q17 19 51 19h162l-252 -284h-228l-181 284h168z" />
    <glyph glyph-name="florin" unicode="&#x192;" 
d="M1068 1302q-185 0 -243 -215l-38 -147h307l-22 -174h-320l-173 -711q-54 -217 -195 -313t-387 -96l16 127q9 76 87 75q187 0 238 214l172 699l-129 18q-48 11 -48 50l12 111h209l38 155q49 204 190.5 307t389.5 103l-16 -134q-5 -39 -26 -54t-62 -15z" />
    <glyph glyph-name="circumflex" unicode="&#x2c6;" horiz-adv-x="605" 
d="M557 1196q-32 0 -47 18l-83 102q-8 8 -17 20q-8 -8 -23 -20l-111 -102q-21 -18 -51 -18h-169l252 284h230l181 -284h-162z" />
    <glyph glyph-name="caron" unicode="&#x2c7;" horiz-adv-x="605" 
d="M260 1480q30 0 46 -19l84 -102q8 -10 18 -24q6 7 12.5 13t11.5 11l109 102q17 19 51 19h162l-252 -284h-229l-181 284h168z" />
    <glyph glyph-name="uni02C9" unicode="&#x2c9;" horiz-adv-x="605" 
d="M132 1402h566l-19 -157h-566z" />
    <glyph glyph-name="breve" unicode="&#x2d8;" horiz-adv-x="605" 
d="M132 1412q0 38 4 68h171q-3 -22 -3 -54t22.5 -57.5t70.5 -25.5q80 0 110.5 35.5t36.5 101.5h170q-24 -205 -133.5 -248t-186.5 -43t-126 18t-79 49.5t-43.5 74.5t-13.5 81z" />
    <glyph glyph-name="dotaccent" unicode="&#x2d9;" horiz-adv-x="605" 
d="M301.5 1248.5q-47.5 47.5 -47.5 97.5q0 81 47 129t113 48t115.5 -48t49.5 -114q0 -65 -49.5 -112.5t-115.5 -47.5q-65 0 -112.5 47.5z" />
    <glyph glyph-name="ring" unicode="&#x2da;" horiz-adv-x="605" 
d="M315 1359q0 -41 24.5 -67t67.5 -26t67.5 26t24.5 67t-24.5 66t-67.5 25t-67.5 -25t-24.5 -66zM246 1509q68 59 160 59q93 0 161.5 -59.5t68.5 -150.5t-68 -149t-162 -58t-161 58t-67 149q0 92 68 151z" />
    <glyph glyph-name="ogonek" unicode="&#x2db;" horiz-adv-x="605" 
d="M41 -219q0 134 180 231l124 -12q-74 -37 -95 -82t-21 -71t15 -42t37 -16t33.5 2.5t19 5.5t12 5.5t9.5 2.5q18 0 22 -16l24 -90q-75 -52 -172 -52q-98 0 -143 37.5t-45 96.5z" />
    <glyph glyph-name="tilde" unicode="&#x2dc;" horiz-adv-x="605" 
d="M305 1304q-57 0 -66 -80h-150q14 111 79 180t149 69q50 0 94.5 -29.5t64.5 -42.5t38 -13q55 0 69 78h147q-14 -110 -77 -178.5t-151 -68.5q-52 0 -94.5 29t-63 42.5t-39.5 13.5z" />
    <glyph glyph-name="hungarumlaut" unicode="&#x2dd;" horiz-adv-x="605" 
d="M530 1194h-115l197 249q19 25 40 39t60 14h175l-273 -267q-37 -35 -84 -35zM248 1194h-101l149 249q31 53 98 53h159l-220 -267q-27 -35 -85 -35z" />
    <glyph glyph-name="pi" unicode="&#x3c0;" horiz-adv-x="1222" 
d="M1158 876h-96l-109 -876h-242l105 876h-308l-76 -607q-35 -283 -302 -283q-83 0 -140 33l19 102q8 40 53 40q72 0 95.5 25t31.5 86l74 604h-167l12 87q7 52 43 69.5t58 17.5h1045l-12 -99q-4 -31 -26 -53t-58 -22z" />
    <glyph glyph-name="endash" unicode="&#x2013;" horiz-adv-x="1075" 
d="M180 699h765l-21 -174h-765z" />
    <glyph glyph-name="emdash" unicode="&#x2014;" horiz-adv-x="1592" 
d="M180 699h1282l-21 -174h-1282z" />
    <glyph glyph-name="quoteleft" unicode="&#x2018;" horiz-adv-x="427" 
d="M176 1196q0 102 61.5 206.5t175.5 191.5l68 -45q38 -23 -9 -73q-89 -104 -89 -221q0 -65 29 -127q3 -8 3 -20q0 -28 -43 -45l-155 -57q-41 88 -41 190z" />
    <glyph glyph-name="quoteright" unicode="&#x2019;" horiz-adv-x="427" 
d="M455 1372q0 -102 -61.5 -206.5t-176.5 -191.5l-69 45q-15 10 -15 28t19 38q43 47 69.5 105.5t26.5 121.5t-29 127q-3 9 -3 21q0 28 43 45l155 58q41 -89 41 -191z" />
    <glyph glyph-name="quotesinglbase" unicode="&#x201a;" horiz-adv-x="470" 
d="M312 102q0 -102 -61.5 -207t-175.5 -192l-69 45q-15 10 -15 27q1 17 19 39q96 111 95 201q0 91 -28 153q-3 8 -3 20q0 29 43 46l154 58q41 -88 41 -190z" />
    <glyph glyph-name="quotedblleft" unicode="&#x201c;" horiz-adv-x="744" 
d="M495 1196q0 102 61 206.5t175 191.5l69 -45q15 -9 15 -28t-18 -39q-43 -47 -69.5 -104.5t-26.5 -120.5t29 -129q3 -8 3 -20q0 -29 -43 -45l-154 -57q-41 88 -41 190zM176 1196q0 102 61.5 206.5t175.5 191.5l68 -45q38 -23 -9 -73q-89 -104 -89 -221q0 -65 29 -127
q3 -8 3 -20q0 -28 -43 -45l-155 -57q-41 88 -41 190z" />
    <glyph glyph-name="quotedblright" unicode="&#x201d;" horiz-adv-x="744" 
d="M776 1372q0 -102 -61.5 -206.5t-175.5 -191.5l-69 45q-15 10 -15 27q1 17 19 39q96 111 95 201q0 91 -28 153q-3 9 -3 21q0 29 43 45l154 58q41 -89 41 -191zM459 1372q0 -102 -61.5 -206.5t-176.5 -191.5l-68 45q-34 22 3 65q96 111 96 203t-29 152q-3 9 -3 21
q0 28 43 45l155 58q41 -89 41 -191z" />
    <glyph glyph-name="quotedblbase" unicode="&#x201e;" horiz-adv-x="744" 
d="M612 102q0 -102 -61.5 -207t-175.5 -192l-69 45q-15 10 -15 27q1 17 19 39q96 112 96 201t-29 153q-3 8 -3 20q0 29 43 46l154 58q41 -88 41 -190zM294 102q0 -102 -61.5 -207t-176.5 -192l-68 45q-34 22 3 65q96 111 96 203t-29 152q-3 8 -3 20q0 28 43 46l155 58
q41 -88 41 -190z" />
    <glyph glyph-name="dagger" unicode="&#x2020;" horiz-adv-x="1093" 
d="M1082 981v-3q0 -4 -11 -92h-380l-49 -403l-69 -816q-95 -49 -161.5 -32t-89.5 32l131 816l48 403h-380l10 81q4 41 37 72.5t76 31.5t74 -4.5t64.5 -11t68 -14.5t68.5 -13l27 471q60 31 131 31q72 0 120 -31l-88 -471q35 5 71 13t95 19t110 11q50 0 73.5 -27t23.5 -63z
" />
    <glyph glyph-name="daggerdbl" unicode="&#x2021;" horiz-adv-x="1093" 
d="M36 183v3q0 4 11 95h380l75 605h-381l10 81q4 41 37 72.5t76 31.5t74 -4.5t64.5 -11t68 -14.5t68.5 -13l27 471q60 31 131 31q72 0 120 -31l-88 -471q35 5 71 13t95 19t110 11q50 0 73.5 -27.5t23.5 -49.5t-1 -27l-10 -81h-381l-76 -605h382l-9 -81q-11 -73 -54 -90
t-73 -17t-61 4.5t-65 11.5t-68.5 14.5t-68.5 12.5l-24 -469q-95 -49 -161.5 -32t-89.5 32l87 469q-36 -5 -72 -12.5t-93.5 -19t-108.5 -11.5t-75 26.5t-24 63.5z" />
    <glyph glyph-name="bullet" unicode="&#x2022;" 
d="M296 921q130 132 316 132t316.5 -132t130.5 -313q0 -182 -130.5 -312.5t-316.5 -130.5t-316 131t-130 312t130 313z" />
    <glyph glyph-name="ellipsis" unicode="&#x2026;" horiz-adv-x="1553" 
d="M1128 138q0 32 12 61t32.5 49.5t49 33t76.5 12.5t94.5 -45t46.5 -94t-12.5 -77t-33.5 -48.5t-49 -32t-61 -11.5t-61.5 11.5t-49 32t-32.5 48.5t-12 60zM582 138q0 32 11.5 61t32.5 49.5t49 33t76 12.5t94.5 -45t46.5 -94t-12.5 -77t-33.5 -48.5t-49 -32t-61 -11.5
t-61 11.5t-49 32t-32.5 48.5t-11.5 60zM35 138q0 32 11.5 61t32.5 49.5t49.5 33t76.5 12.5t94 -44.5t46 -94.5q0 -49 -12 -77t-33 -48.5t-49.5 -32t-61 -11.5t-61 11.5t-49.5 32t-32.5 48.5t-11.5 60z" />
    <glyph glyph-name="perthousand" unicode="&#x2030;" horiz-adv-x="2217" 
d="M1858 562q-163 0 -163 -276q0 -147 105 -147q111 0 135.5 95.5t24.5 175.5t-31 116t-71 36zM2148 392q0 -86 -31.5 -164t-110 -162t-214.5 -84q-135 0 -211 85.5t-76 226.5q0 192 105.5 310t261.5 118q123 0 199.5 -86.5t76.5 -243.5zM994 322q0 -183 100 -183
q166 1 167 271q0 80 -31 116t-71 36q-78 0 -121.5 -64.5t-43.5 -175.5zM1449 392q0 -86 -32 -164t-110 -162t-213 -84q-136 0 -212 85.5t-76 226.5q0 194 105.5 311t245.5 117t216 -86.5t76 -243.5zM1338 1480h178l-1194 -1443q-30 -37 -79 -37h-181l1192 1441q39 39 84 39z
M423 913q159 1 159 271q0 80 -30.5 116t-70.5 36q-165 0 -165 -277q0 -146 107 -146zM771 1166q0 -86 -31.5 -164.5t-111 -162.5t-214.5 -84t-210.5 86t-75.5 227q0 192 105.5 309t261.5 117q124 0 200 -86t76 -242z" />
    <glyph glyph-name="guilsinglleft" unicode="&#x2039;" horiz-adv-x="627" 
d="M446 227q0 -42 -44 -61l-85 -37l-193 406l5 30l292 405l75 -38q32 -13 32 -37t-19 -58l-157 -245q-17 -26 -38 -43q12 -10 27 -41l97 -245q8 -19 8 -36z" />
    <glyph glyph-name="guilsinglright" unicode="&#x203a;" horiz-adv-x="627" 
d="M196 869q0 42 45 63l84 38l191 -405l-3 -30l-292 -406l-75 37q-57 27 -14 97l159 245q20 30 36 41q-17 16 -26 43l-99 245q-6 16 -6 32z" />
    <glyph glyph-name="fraction" unicode="&#x2044;" horiz-adv-x="686" 
d="M878 1480h100l-969 -1407q-51 -73 -133 -73h-100l960 1396q59 84 142 84z" />
    <glyph glyph-name="Euro" unicode="&#x20ac;" 
d="M866 1494q261 0 387 -201l-97 -93q-28 -28 -51.5 -28t-73 56t-180.5 56t-229.5 -86t-148.5 -251h528l-8 -77q-2 -22 -23 -40.5t-54 -18.5h-474q-9 -58 -12 -122h444l-9 -74q-3 -24 -24.5 -42.5t-50.5 -18.5h-361q11 -176 83.5 -267t194.5 -91t172.5 41t79 65t45.5 24
q18 0 35 -17l94 -97q-176 -226 -465 -226q-228 0 -354 154.5t-136 413.5h-134l16 135h120q5 76 14 122h-118l16 136h132q74 255 246 401t396 146z" />
    <glyph glyph-name="trademark" unicode="&#x2122;" horiz-adv-x="1370" 
d="M644 1480l-17 -140h-153l-58 -477h-167l57 477h-151l18 140h471zM1252 1480h144l-75 -617h-147l38 318q2 24 23 95l-177 -311q-21 -36 -63 -36h-23q-43 0 -53 36l-99 305q0 -69 -2 -89l-38 -318h-147l75 617h145q22 0 33.5 -3.5t17.5 -23.5l84 -268q11 -36 18 -69
q21 46 35 69l153 268q11 19 24 23t34 4z" />
    <glyph glyph-name="Omega" unicode="&#x2126;" horiz-adv-x="1392" 
d="M412 368q-304 98 -304 486q0 112 53 234.5t201 265t455 142.5q255 0 410 -151t155 -375t-118 -388t-317 -216l-17 -147h362l-16 -136q-5 -36 -31.5 -59t-66.5 -24h-480l63 501q153 28 250 138t97 315q0 156 -83.5 243t-232.5 87q-193 0 -303.5 -122t-110.5 -334
q0 -276 254 -327l-62 -501h-478q-38 0 -58 20t-20 52l17 147h362z" />
    <glyph glyph-name="partialdiff" unicode="&#x2202;" horiz-adv-x="1092" 
d="M308 368q0 -90 38 -138.5t96 -48.5q113 0 203 100t148 307q-20 202 -177 202q-127 0 -205 -100t-99 -265q-4 -20 -4 -57zM613 985q173 0 247 -125l9 76.5t7 93.5q0 134 -48 199.5t-116 65.5t-141 -32.5t-88 -32.5q-35 0 -53 41l-43 96q173 128 371 128q159 0 252 -119.5
t93 -327.5q0 -66 -7 -120q-86 -676 -317.5 -809.5t-384.5 -133.5t-250 98.5t-97 310.5t170.5 401.5t395.5 189.5z" />
    <glyph glyph-name="Delta" unicode="&#x2206;" horiz-adv-x="1393" 
d="M322 210h678l-188 854q-8 28 -14.5 64t-14.5 79q-29 -78 -62 -144zM1321 0h-1372l747 1480h242z" />
    <glyph glyph-name="product" unicode="&#x220f;" horiz-adv-x="1404" 
d="M1471 1480l-24 -205h-175l-199 -1620h-251l197 1620h-446l-198 -1620h-251l199 1620h-175l25 205h1298z" />
    <glyph glyph-name="summation" unicode="&#x2211;" horiz-adv-x="1294" 
d="M195 1361v18q0 18 12 102h1141l-27 -212h-758l393 -664l-10 -73l-555 -663h758l-26 -212h-1140l10 88q4 35 37 75l644 752l-462 744q-17 27 -17 45z" />
    <glyph glyph-name="minus" unicode="&#x2212;" 
d="M175 778h904l-22 -181h-903z" />
    <glyph glyph-name="radical" unicode="&#x221a;" horiz-adv-x="1189" 
d="M84 739v9q0 9 10 89h360q27 0 43.5 -14t20.5 -32l70 -333q15 -79 15 -170q25 83 49 140l556 1273q21 47 75 47h160l-778 -1748h-205l-164 660h-130q-82 0 -82 79z" />
    <glyph glyph-name="infinity" unicode="&#x221e;" horiz-adv-x="1293" 
d="M928 441q65 0 105 59.5t40 117.5q0 90 -31.5 121t-69.5 31q-60 0 -103 -39.5t-103 -124.5q52 -120 91 -142.5t71 -22.5zM454.5 483q45.5 42 100.5 122q-52 120 -90.5 142.5t-72.5 22.5q-66 0 -105 -60.5t-39 -133.5q0 -74 32 -104.5t80 -30.5q49 0 94.5 42zM638 422
q-150 -184 -296 -184q-137 0 -214.5 87t-77.5 237t103 281t267 131q165 0 263 -186q70 88 145 137t152 49q137 0 215 -87.5t78 -237.5t-103.5 -280.5t-268.5 -130.5q-166 0 -263 184z" />
    <glyph glyph-name="integral" unicode="&#x222b;" horiz-adv-x="786" 
d="M470 1120q85 377 398 377q83 0 140 -35l-28 -123q-11 -56 -64 -56q-92 0 -137.5 -46.5t-70.5 -149.5l-248 -1029q-100 -408 -433 -408q-87 0 -145 35l27 105q7 29 23 39.5t64 10.5q99 0 147.5 46.5t75.5 163.5z" />
    <glyph glyph-name="approxequal" unicode="&#x2248;" 
d="M422 653q76 0 166.5 -35t137 -51.5t84.5 -16.5q66 0 122.5 23.5t77.5 44.5l10 -154q-86 -97 -242 -97q-76 0 -166 34.5t-137 50.5t-86 16q-68 0 -125 -23.5t-77 -48.5l-18 149q89 108 253 108zM467 1015q76 0 166 -35.5t136.5 -51.5t84.5 -16q62 0 120 23t81 46l10 -154
q-88 -99 -243 -99q-71 0 -163.5 35.5t-139.5 51.5t-85 16q-64 0 -119 -22t-84 -51l-18 149q90 108 254 108z" />
    <glyph glyph-name="notequal" unicode="&#x2260;" 
d="M197 958h512l142 229h174l-142 -229h216l-21 -182h-308l-110 -176h396l-23 -181h-484l-151 -243h-174l151 243h-246l23 181h334l110 176h-422z" />
    <glyph glyph-name="lessequal" unicode="&#x2264;" horiz-adv-x="1092" 
d="M104 269h812l-23 -187h-812zM950 548l-16 -136l-6 -45l-764 391l13 101l859 388l-21 -172q-5 -46 -64 -70l-381 -162q-42 -17 -119 -34q70 -15 111 -35l340 -165q48 -23 48 -61z" />
    <glyph glyph-name="greaterequal" unicode="&#x2265;" horiz-adv-x="1092" 
d="M218 1067l16 136l7 45l764 -391l-14 -101l-859 -388l22 172q5 46 63 70l381 162q44 18 120 34q-75 16 -112 35l-340 165q-48 23 -48 61zM908 82h-811l24 187h812z" />
    <glyph glyph-name="lozenge" unicode="&#x25ca;" 
d="M341 737l237 -513q21 -47 34 -97q13 49 35 97l241 513l-241 513q-12 27 -19.5 51t-15.5 47q-21 -68 -34 -98zM134 737l390 831h176l391 -831l-391 -830h-176z" />
    <glyph glyph-name="uni2669" unicode="&#x2669;" horiz-adv-x="0" 
d="M-121 -512l248 2048h2l-248 -2048h-2z" />
    <glyph glyph-name="undercommaaccent" horiz-adv-x="605" 
d="M359 -76l-143 -290h-154l84 290h213z" />
    <glyph glyph-name="grave.case" horiz-adv-x="605" 
d="M326 1832q52 0 68 -13.5t27 -25.5l157 -207h-207q-28 0 -43 9t-34 26l-240 211h272z" />
    <glyph glyph-name="dieresis.case" horiz-adv-x="605" 
d="M727 1706q0 -26 -9.5 -47.5t-26.5 -37.5t-39.5 -26t-59.5 -10t-74.5 35.5t-37.5 73.5t10 61t27 39.5t39 26.5t47.5 10t48 -10t39.5 -26.5t26.5 -39.5t9.5 -49zM368 1706q0 -26 -10.5 -47.5t-27.5 -37.5t-40 -26t-48 -10q-48 0 -85 35t-37 73q0 66 37 102t74 36t59.5 -10
t39.5 -26.5t27.5 -39.5t10.5 -49z" />
    <glyph glyph-name="macron.case" horiz-adv-x="605" 
d="M150 1743h610l-19 -140h-609z" />
    <glyph glyph-name="acute.case" horiz-adv-x="605" 
d="M466 1586h-198l209 207q33 33 59 36t47 3h269l-291 -211q-49 -35 -95 -35z" />
    <glyph glyph-name="circumflex.case" horiz-adv-x="605" 
d="M595 1586q-30 0 -57 17l-81 71q-3 3 -7.5 6.5t-7.5 8.5l-16 -15l-99 -71q-23 -17 -63 -17h-183l255 223h244l200 -223h-185z" />
    <glyph glyph-name="caron.case" horiz-adv-x="605" 
d="M112 1809h222l116 -100l140 100h222l-256 -223h-244z" />
    <glyph glyph-name="breve.case" horiz-adv-x="605" 
d="M321 1792q0 -82 136 -82t147 100h156q-14 -111 -100.5 -178t-226.5 -67q-269 0 -269 203q0 20 3 42h155q-1 -5 -1 -6v-12z" />
    <glyph glyph-name="dotaccent.case" horiz-adv-x="605" 
d="M547.5 1630.5q-47.5 -45.5 -108.5 -45.5q-62 0 -107.5 45.5t-45.5 91.5q0 78 45 123.5t91 45.5t75 -12t63.5 -45.5t34.5 -95.5t-47.5 -107.5z" />
    <glyph glyph-name="ring.case" horiz-adv-x="605" 
d="M339 1724q0 -42 23.5 -67t66.5 -25t68 25t25 67t-25 67t-68 25t-66.5 -25t-23.5 -67zM280 1863.5q63 55.5 150 55.5t150 -55.5t63 -139.5t-62.5 -138.5t-150.5 -54.5t-150.5 54.5t-62.5 138.5t63 139.5z" />
    <glyph glyph-name="tilde.case" horiz-adv-x="605" 
d="M341 1651q-54 0 -62 -70h-136q19 158 94 192.5t113 34.5q58 0 127 -36t92 -36q56 0 64 65h133q-19 -157 -93.5 -191t-112.5 -34q-55 0 -127 37.5t-92 37.5z" />
    <glyph glyph-name="hungarumlaut.case" horiz-adv-x="605" 
d="M589 1586h-131l188 178q56 54 116 54h183l-265 -197q-47 -35 -91 -35zM299 1586h-116l146 178q45 54 109 54h158l-214 -197q-39 -35 -83 -35z" />
    <glyph glyph-name="caron.salt" horiz-adv-x="605" 
d="M523 1523q36 0 36 -31q0 -40 -126 -277q-16 -30 -37 -37.5t-53 -7.5h-86l102 353h164z" />
    </font>
</defs>
</svg>
